<svg aria-hidden="true" style="position: absolute; width: 0; height: 0; overflow: hidden;" version="1.1" xmlns="http://www.w3.org/2000/svg" xmlns:xlink="http://www.w3.org/1999/xlink">
  <defs>
    <symbol id="icon-asciidoc" viewBox="0 0 16 16">
      <path fill="none" stroke="var(--red)" stroke-linecap="round" stroke-linejoin="round" d="M3 15 4.7144695 11M5.7787881 8.5 9 1 15 15M1 8.5H8.0000001M1 11H7" />
    </symbol>

    <symbol id="icon-bash" viewBox="0 0 16 16">
      <g fill="none" stroke="var(--green)" stroke-linecap="round" stroke-linejoin="round">
        <path d="M2 15.5c-.7 0-1.5-.8-1.5-1.5V5c0-.7.8-1.5 1.5-1.5h9c.7 0 1.5.8 1.5 1.5v9c0 .7-.8 1.5-1.5 1.5z" />
        <path d="m1.2 3.8 3.04-2.5S5.17.5 5.7.5h8.4c.66 0 1.4.73 1.4 1.4v7.73a2.7 2.7 0 01-.7 1.75l-2.68 3.51" />
        <path d="M6 8.75c0-.69-.54-1.25-1.2-1.25h-.6c-.66 0-1.2.56-1.2 1.25S3.54 10 4.2 10h.6c.66 0 1.2.56 1.2 1.25s-.54 1.25-1.2 1.25h-.6c-.66 0-1.2-.56-1.2-1.25M4.5 6.5v1m0 5v1" />
      </g>
    </symbol>

    <symbol id="icon-http" viewBox="0 0 16 16">
      <g fill="none" stroke="var(--blue)" stroke-linecap="round" stroke-linejoin="round">
          <path d="M14.5 8A6.5 6.5 0 018 14.5 6.5 6.5 0 011.5 8 6.5 6.5 0 018 1.5 6.5 6.5 0 0114.5 8" />
          <path d="M8 1.5c1.67 2 2.5 4.17 2.5 6.5s-.83 4.5-2.5 6.5m0-13A9.96 9.96 0 005.5 8c0 2.33.83 4.5 2.5 6.5m-5.5-4h11m-11-5h11" />
      </g>
    </symbol>

    <symbol id="icon-javascript" viewBox="0 0 16 16">
      <g fill="none" stroke="var(--yellow)" stroke-linecap="round" stroke-linejoin="round">
          <path d="M4.5 11c0 .828427.6715729 1.5 1.5 1.5.8284271 0 1.5-.671573 1.5-1.5V7.5M12.5 8.75C12.5 8.05964406 11.9627417 7.5 11.3 7.5L10.7 7.5C10.0372583 7.5 9.5 8.05964406 9.5 8.75 9.5 9.44035594 10.0372583 10 10.7 10L11.3 10C11.9627417 10 12.5 10.5596441 12.5 11.25 12.5 11.9403559 11.9627417 12.5 11.3 12.5L10.7 12.5C10.0372583 12.5 9.5 11.9403559 9.5 11.25" />
          <path d="m 4,1.5 h 8 c 1.385,0 2.5,1.115 2.5,2.5 v 8 c 0,1.385 -1.115,2.5 -2.5,2.5 H 4 C 2.615,14.5 1.5,13.385 1.5,12 V 4 C 1.5,2.615 2.615,1.5 4,1.5 Z" />
      </g>
    </symbol>

    <symbol id="icon-nginx" viewBox="0 0 16 16">
      <g fill="none" stroke="var(--green)" stroke-linecap="round" stroke-linejoin="round">
          <path d="M5.5 10.5v-5l5 5v-5" />
          <path d="M1.5 11.5v-7L8 .5l6.5 4v7l-6.5 4z" />
      </g>
    </symbol>

    <symbol id="icon-nodejs" viewBox="0 0 16 16">
      <path fill="none" stroke="var(--green)" stroke-linecap="round" stroke-linejoin="round" d="M11.5 6.5v-.17c0-.73-.6-1.33-1.33-1.33H9a1.5 1.5 0 100 3h1a1.5 1.5 0 010 3H9a1.5 1.5 0 01-1.5-1.5M5.5 5v4.5c0 1.5-.08 1.87-.71 2.5-.5.5-1.5.5-1.5.5-.96-.4-1.2-.66-1.79-1v-7L8 .5l6.5 4v7l-6.5 4-2.49-1.53" />
    </symbol>

    <symbol id="icon-react" viewBox="0 0 16 16">
	    <g fill="none" stroke="var(--blue)" stroke-linecap="round" stroke-linejoin="round">
            <path d="M8 10.8c4.14 0 7.5-1.25 7.5-2.8S12.14 5.2 8 5.2.5 6.45.5 8s3.36 2.8 7.5 2.8" />
            <path d="M5.52 9.4c2.07 3.5 4.86 5.72 6.23 4.95 1.37-.78.8-4.24-1.27-7.75C8.41 3.1 5.62.88 4.25 1.65c-1.37.78-.8 4.24 1.27 7.75" />
            <path d="M5.52 6.6c-2.07 3.5-2.64 6.97-1.27 7.75 1.37.77 4.16-1.45 6.23-4.95s2.64-6.97 1.27-7.75C10.38.88 7.59 3.1 5.52 6.6" />
            <path d="M8.5 8a.5.5 0 01-.5.5.5.5 0 01-.5-.5.5.5 0 01.5-.5.5.5 0 01.5.5" />
        </g>
    </symbol>

    <symbol id="icon-typescript" viewBox="0 0 16 16">
      <g fill="none" stroke="var(--blue)" stroke-linecap="round" stroke-linejoin="round">
          <path d="M4 1.5h8A2.5 2.5 0 0114.5 4v8a2.5 2.5 0 01-2.5 2.5H4A2.5 2.5 0 011.5 12V4A2.5 2.5 0 014 1.5" />
          <path d="M12.5 8.75c0-.69-.54-1.25-1.2-1.25h-.6c-.66 0-1.2.56-1.2 1.25S10.04 10 10.7 10h.6c.66 0 1.2.56 1.2 1.25s-.54 1.25-1.2 1.25h-.6c-.66 0-1.2-.56-1.2-1.25m-3-3.75v5M5 7.5h3" />
      </g>
    </symbol>
  </defs>
</svg>
