<svg aria-hidden="true" style="position: absolute; width: 0; height: 0; overflow: hidden;" version="1.1" xmlns="http://www.w3.org/2000/svg" xmlns:xlink="http://www.w3.org/1999/xlink">
    <defs>

        <!-- Technology / Programming language Icons -->

        <symbol id="icon-ansible" viewBox="0 0 24 24">
            <path fill="var(--red)" d="M10.617 11.473l4.686 3.695-3.102-7.662zM12 0C5.371 0 0 5.371 0 12s5.371 12 12 12 12-5.371 12-12S18.629 0 12 0zm5.797 17.305c-.011.471-.403.842-.875.83-.236 0-.416-.09-.664-.293l-6.19-5-2.079 5.203H6.191L11.438 5.44c.124-.314.427-.52.764-.506.326-.014.63.189.742.506l4.774 11.494c.045.111.08.234.08.348-.001.009-.001.009-.001.023z"/>
        </symbol>

        <symbol id="icon-apollo" viewBox="0 0 24 24">
            <path fill="var(--purple)" d="M12,0C5.372,0 0,5.373 0,12 0,18.628 5.372,24 12,24 18.627,24 24,18.628 24,12A12.014,12.014 0 0 0 23.527,8.657 0.6,0.6 0 0 0 22.4,9.066H22.398C22.663,10.009 22.8,10.994 22.8,12A10.73,10.73 0 0 1 19.637,19.637 10.729,10.729 0 0 1 12,22.8 10.73,10.73 0 0 1 4.363,19.637 10.728,10.728 0 0 1 1.2,12 10.73,10.73 0 0 1 4.363,4.363 10.728,10.728 0 0 1 12,1.2C14.576,1.2 17.013,2.096 18.958,3.74A1.466,1.466 0 1 0 19.82,2.9 11.953,11.953 0 0 0 12,0ZM10.56,5.88 6.36,16.782H8.99L9.677,14.934H13.646L12.927,12.892H10.314L12.014,8.201 15.038,16.781H17.669L13.47,5.88Z"/>
        </symbol>

        <symbol id="icon-asciidoc" viewBox="0 0 24 24">
            <path fill="var(--red)" d="M18.0685 0H5.9318C2.6579 0 0 2.6578 0 5.9316v12.1367C0 21.3421 2.658 24 5.9318 24h12.1367C21.3423 24 24 21.3421 24 18.0683V5.9316C24 2.6578 21.3423 0 18.0685 0zM10.708 15.4038H8.8102c-.0018.0045-.0031.009-.005.0135L7.1986 19.282a.5058.5058 0 11-.934-.3883l1.4507-3.49H4.8677a.5058.5058 0 110-1.0113h5.8403a.5058.5058 0 110 1.0113zm7.9189 4.1647a.5058.5058 0 01-.6545-.2886L12.6206 6.2306l-2.395 5.761h1.551a.5058.5058 0 110 1.0113H5.9369a.5058.5058 0 110-1.0113h3.194c.0015-.0038.0026-.0075.0042-.0112l3.0223-7.2693a.5058.5058 0 01.457-.3112.5058.5058 0 01.4774.3137L18.908 18.896a.5058.5058 0 01-.2812.6725z"/>
        </symbol>

        <symbol id="icon-c" viewBox="0 0 24 24">
            <path fill="var(--blue)" d="M16.5921 9.1962s-.354-3.298-3.627-3.39c-3.2741-.09-4.9552 2.474-4.9552 6.14 0 3.6651 1.858 6.5972 5.0451 6.5972 3.184 0 3.5381-3.665 3.5381-3.665l6.1041.365s.36 3.31-2.196 5.836c-2.552 2.5241-5.6901 2.9371-7.8762 2.9201-2.19-.017-5.2261.034-8.1602-2.97-2.938-3.0101-3.436-5.9302-3.436-8.8002 0-2.8701.556-6.6702 4.047-9.5502C7.444.72 9.849 0 12.254 0c10.0422 0 10.7172 9.2602 10.7172 9.2602z"/>
        </symbol>

        <symbol id="icon-css" viewBox="0 0 24 24">
            <path fill="var(--blue)" d="M0 0v20.16A3.84 3.84 0 0 0 3.84 24h16.32A3.84 3.84 0 0 0 24 20.16V3.84A3.84 3.84 0 0 0 20.16 0Zm14.256 13.08c1.56 0 2.28 1.08 2.304 2.64h-1.608c.024-.288-.048-.6-.144-.84-.096-.192-.288-.264-.552-.264-.456 0-.696.264-.696.84-.024.576.288.888.768 1.08.72.288 1.608.744 1.92 1.296q.432.648.432 1.656c0 1.608-.912 2.592-2.496 2.592-1.656 0-2.4-1.032-2.424-2.688h1.68c0 .792.264 1.176.792 1.176.264 0 .456-.072.552-.24.192-.312.24-1.176-.048-1.512-.312-.408-.912-.6-1.32-.816q-.828-.396-1.224-.936c-.24-.36-.36-.888-.36-1.536 0-1.44.936-2.472 2.424-2.448m5.4 0c1.584 0 2.304 1.08 2.328 2.64h-1.608c0-.288-.048-.6-.168-.84-.096-.192-.264-.264-.528-.264-.48 0-.72.264-.72.84s.288.888.792 1.08c.696.288 1.608.744 1.92 1.296.264.432.408.984.408 1.656.024 1.608-.888 2.592-2.472 2.592-1.68 0-2.424-1.056-2.448-2.688h1.68c0 .744.264 1.176.792 1.176.264 0 .456-.072.552-.24.216-.312.264-1.176-.048-1.512-.288-.408-.888-.6-1.32-.816-.552-.264-.96-.576-1.2-.936s-.36-.888-.36-1.536c-.024-1.44.912-2.472 2.4-2.448m-11.031.018c.711-.006 1.419.198 1.839.63.432.432.672 1.128.648 1.992H9.336c.024-.456-.096-.792-.432-.96-.312-.144-.768-.048-.888.24-.12.264-.192.576-.168.864v3.504c0 .744.264 1.128.768 1.128a.65.65 0 0 0 .552-.264c.168-.24.192-.552.168-.84h1.776c.096 1.632-.984 2.712-2.568 2.688-1.536 0-2.496-.864-2.472-2.472v-4.032c0-.816.24-1.44.696-1.848.432-.408 1.146-.624 1.857-.63"/>
        </symbol>

        <symbol id="icon-docker" viewBox="0 0 24 24">
            <path fill="var(--blue)" d="M13.983 11.078h2.119a.186.186 0 00.186-.185V9.006a.186.186 0 00-.186-.186h-2.119a.185.185 0 00-.185.185v1.888c0 .102.083.185.185.185m-2.954-5.43h2.118a.186.186 0 00.186-.186V3.574a.186.186 0 00-.186-.185h-2.118a.185.185 0 00-.185.185v1.888c0 .102.082.185.185.185m0 2.716h2.118a.187.187 0 00.186-.186V6.29a.186.186 0 00-.186-.185h-2.118a.185.185 0 00-.185.185v1.887c0 .102.082.185.185.186m-2.93 0h2.12a.186.186 0 00.184-.186V6.29a.185.185 0 00-.185-.185H8.1a.185.185 0 00-.185.185v1.887c0 .102.083.185.185.186m-2.964 0h2.119a.186.186 0 00.185-.186V6.29a.185.185 0 00-.185-.185H5.136a.186.186 0 00-.186.185v1.887c0 .102.084.185.186.186m5.893 2.715h2.118a.186.186 0 00.186-.185V9.006a.186.186 0 00-.186-.186h-2.118a.185.185 0 00-.185.185v1.888c0 .102.082.185.185.185m-2.93 0h2.12a.185.185 0 00.184-.185V9.006a.185.185 0 00-.184-.186h-2.12a.185.185 0 00-.184.185v1.888c0 .102.083.185.185.185m-2.964 0h2.119a.185.185 0 00.185-.185V9.006a.185.185 0 00-.184-.186h-2.12a.186.186 0 00-.186.186v1.887c0 .102.084.185.186.185m-2.92 0h2.12a.185.185 0 00.184-.185V9.006a.185.185 0 00-.184-.186h-2.12a.185.185 0 00-.184.185v1.888c0 .102.082.185.185.185M23.763 9.89c-.065-.051-.672-.51-1.954-.51-.338.001-.676.03-1.01.087-.248-1.7-1.653-2.53-1.716-2.566l-.344-.199-.226.327c-.284.438-.49.922-.612 1.43-.23.97-.09 1.882.403 2.661-.595.332-1.55.413-1.744.42H.751a.751.751 0 00-.75.748 11.376 11.376 0 00.692 4.062c.545 1.428 1.355 2.48 2.41 3.124 1.18.723 3.1 1.137 5.275 1.137.983.003 1.963-.086 2.93-.266a12.248 12.248 0 003.823-1.389c.98-.567 1.86-1.288 2.61-2.136 1.252-1.418 1.998-2.997 2.553-4.4h.221c1.372 0 2.215-.549 2.68-1.009.309-.293.55-.65.707-1.046l.098-.288Z"/>
        </symbol>

        <symbol id="icon-firefox" viewBox="0 0 24 24">
            <path fill="var(--orange)" d="M8.824 7.287c.008 0 .004 0 0 0zm-2.8-1.4c.006 0 .003 0 0 0zm16.754 2.161c-.505-1.215-1.53-2.528-2.333-2.943.654 1.283 1.033 2.57 1.177 3.53l.002.02c-1.314-3.278-3.544-4.6-5.366-7.477-.091-.147-.184-.292-.273-.446a3.545 3.545 0 01-.13-.24 2.118 2.118 0 01-.172-.46.03.03 0 00-.027-.03.038.038 0 00-.021 0l-.006.001a.037.037 0 00-.01.005L15.624 0c-2.585 1.515-3.657 4.168-3.932 5.856a6.197 6.197 0 00-2.305.587.297.297 0 00-.147.37c.057.162.24.24.396.17a5.622 5.622 0 012.008-.523l.067-.005a5.847 5.847 0 011.957.222l.095.03a5.816 5.816 0 01.616.228c.08.036.16.073.238.112l.107.055a5.835 5.835 0 01.368.211 5.953 5.953 0 012.034 2.104c-.62-.437-1.733-.868-2.803-.681 4.183 2.09 3.06 9.292-2.737 9.02a5.164 5.164 0 01-1.513-.292 4.42 4.42 0 01-.538-.232c-1.42-.735-2.593-2.121-2.74-3.806 0 0 .537-2 3.845-2 .357 0 1.38-.998 1.398-1.287-.005-.095-2.029-.9-2.817-1.677-.422-.416-.622-.616-.8-.767a3.47 3.47 0 00-.301-.227 5.388 5.388 0 01-.032-2.842c-1.195.544-2.124 1.403-2.8 2.163h-.006c-.46-.584-.428-2.51-.402-2.913-.006-.025-.343.176-.389.206-.406.29-.787.616-1.136.974-.397.403-.76.839-1.085 1.303a9.816 9.816 0 00-1.562 3.52c-.003.013-.11.487-.19 1.073-.013.09-.026.181-.037.272a7.8 7.8 0 00-.069.667l-.002.034-.023.387-.001.06C.386 18.795 5.593 24 12.016 24c5.752 0 10.527-4.176 11.463-9.661.02-.149.035-.298.052-.448.232-1.994-.025-4.09-.753-5.844z"/>
        </symbol>

        <symbol id="icon-graphql" viewBox="0 0 24 24">
            <path fill="var(--purple)" d="M12.002 0a2.138 2.138 0 1 0 0 4.277 2.138 2.138 0 1 0 0-4.277zm8.54 4.931a2.138 2.138 0 1 0 0 4.277 2.138 2.138 0 1 0 0-4.277zm0 9.862a2.138 2.138 0 1 0 0 4.277 2.138 2.138 0 1 0 0-4.277zm-8.54 4.931a2.138 2.138 0 1 0 0 4.276 2.138 2.138 0 1 0 0-4.276zm-8.542-4.93a2.138 2.138 0 1 0 0 4.276 2.138 2.138 0 1 0 0-4.277zm0-9.863a2.138 2.138 0 1 0 0 4.277 2.138 2.138 0 1 0 0-4.277zm8.542-3.378L2.953 6.777v10.448l9.049 5.224 9.047-5.224V6.777zm0 1.601 7.66 13.27H4.34zm-1.387.371L3.97 15.037V7.363zm2.774 0 6.646 3.838v7.674zM5.355 17.44h13.293l-6.646 3.836z"/>
        </symbol>

        <symbol id="icon-http" viewBox="0 0 16 16">
            <g fill="none" stroke="var(--blue)" stroke-linecap="round" stroke-linejoin="round">
                <path d="M14.5 8A6.5 6.5 0 yellow14.5 6.5 6.5 0 011.5 8 6.5 6.5 0 018 1.5 6.5 6.5 0 0114.5 8" />
                <path d="M8 1.5c1.67 2 2.5 4.17 2.5 6.5s-.83 4.5-2.5 6.5m0-13A9.96 9.96 0 005.5 8c0 2.33.83 4.5 2.5 6.5m-5.5-4h11m-11-5h11" />
            </g>
        </symbol>

        <symbol id="icon-laravel" viewBox="0 0 24 24">
            <path fill="var(--red)" d="M23.642 5.43a.364.364 0 01.014.1v5.149c0 .135-.073.26-.189.326l-4.323 2.49v4.934a.378.378 0 01-.188.326L9.93 23.949a.316.316 0 01-.066.027c-.008.002-.016.008-.024.01a.348.348 0 01-.192 0c-.011-.002-.02-.008-.03-.012-.02-.008-.042-.014-.062-.025L.533 18.755a.376.376 0 01-.189-.326V2.974c0-.033.005-.066.014-.098.003-.012.01-.02.014-.032a.369.369 0 01.023-.058c.004-.013.015-.022.023-.033l.033-.045c.012-.01.025-.018.037-.027.014-.012.027-.024.041-.034H.53L5.043.05a.375.375 0 01.375 0L9.93 2.647h.002c.015.01.027.021.04.033l.038.027c.013.014.02.03.033.045.008.011.02.021.025.033.01.02.017.038.024.058.003.011.01.021.013.032.01.031.014.064.014.098v9.652l3.76-2.164V5.527c0-.033.004-.066.013-.098.003-.01.01-.02.013-.032a.487.487 0 01.024-.059c.007-.012.018-.02.025-.033.012-.015.021-.03.033-.043.012-.012.025-.02.037-.028.014-.01.026-.023.041-.032h.001l4.513-2.598a.375.375 0 01.375 0l4.513 2.598c.016.01.027.021.042.031.012.01.025.018.036.028.013.014.022.03.034.044.008.012.019.021.024.033.011.02.018.04.024.06.006.01.012.021.015.032zm-.74 5.032V6.179l-1.578.908-2.182 1.256v4.283zm-4.51 7.75v-4.287l-2.147 1.225-6.126 3.498v4.325zM1.093 3.624v14.588l8.273 4.761v-4.325l-4.322-2.445-.002-.003H5.04c-.014-.01-.025-.021-.04-.031-.011-.01-.024-.018-.035-.027l-.001-.002c-.013-.012-.021-.025-.031-.04-.01-.011-.021-.022-.028-.036h-.002c-.008-.014-.013-.031-.02-.047-.006-.016-.014-.027-.018-.043a.49.49 0 01-.008-.057c-.002-.014-.006-.027-.006-.041V5.789l-2.18-1.257zM5.23.81L1.47 2.974l3.76 2.164 3.758-2.164zm1.956 13.505l2.182-1.256V3.624l-1.58.91-2.182 1.255v9.435zm11.581-10.95l-3.76 2.163 3.76 2.163 3.759-2.164zm-.376 4.978L16.21 7.087 14.63 6.18v4.283l2.182 1.256 1.58.908zm-8.65 9.654l5.514-3.148 2.756-1.572-3.757-2.163-4.323 2.489-3.941 2.27z"/>
        </symbol>

        <symbol id="icon-markdown" viewBox="0 0 24 24">
            <path fill="var(--text)" d="M22.27 19.385H1.73A1.73 1.73 0 010 17.655V6.345a1.73 1.73 0 011.73-1.73h20.54A1.73 1.73 0 0124 6.345v11.308a1.73 1.73 0 01-1.73 1.731zM5.769 15.923v-4.5l2.308 2.885 2.307-2.885v4.5h2.308V8.078h-2.308l-2.307 2.885-2.308-2.885H3.46v7.847zM21.232 12h-2.309V8.077h-2.307V12h-2.308l3.461 4.039z"/>
        </symbol>

        <symbol id="icon-npm" viewBox="0 0 24 24">
            <path fill="var(--red)" d="M1.763 0C.786 0 0 .786 0 1.763v20.474C0 23.214.786 24 1.763 24h20.474c.977 0 1.763-.786 1.763-1.763V1.763C24 .786 23.214 0 22.237 0zM5.13 5.323l13.837.019-.009 13.836h-3.464l.01-10.382h-3.456L12.04 19.17H5.113z"/>
        </symbol>

        <symbol id="icon-javascript" viewBox="0 0 24 24">
            <path fill="var(--yellow)" d="M0 0h24v24H0V0zm22.034 18.276c-.175-1.095-.888-2.015-3.003-2.873-.736-.345-1.554-.585-1.797-1.14-.091-.33-.105-.51-.046-.705.15-.646.915-.84 1.515-.66.39.12.75.42.976.9 1.034-.676 1.034-.676 1.755-1.125-.27-.42-.404-.601-.586-.78-.63-.705-1.469-1.065-2.834-1.034l-.705.089c-.676.165-1.32.525-1.71 1.005-1.14 1.291-.811 3.541.569 4.471 1.365 1.02 3.361 1.244 3.616 2.205.24 1.17-.87 1.545-1.966 1.41-.811-.18-1.26-.586-1.755-1.336l-1.83 1.051c.21.48.45.689.81 1.109 1.74 1.756 6.09 1.666 6.871-1.004.029-.09.24-.705.074-1.65l.046.067zm-8.983-7.245h-2.248c0 1.938-.009 3.864-.009 5.805 0 1.232.063 2.363-.138 2.711-.33.689-1.18.601-1.566.48-.396-.196-.597-.466-.83-.855-.063-.105-.11-.196-.127-.196l-1.825 1.125c.305.63.75 1.172 1.324 1.517.855.51 2.004.675 3.207.405.783-.226 1.458-.691 1.811-1.411.51-.93.402-2.07.397-3.346.012-2.054 0-4.109 0-6.179l.004-.056z"/>
        </symbol>

        <symbol id="icon-key" viewBox="0 0 16 16">
            <g xmlns="http://www.w3.org/2000/svg" fill="none" stroke="var(--text)" stroke-linecap="round" stroke-linejoin="round">
                <path d="M10 10.5a4.5 4.5 0 10-4.02-2.48L1.5 12.5v2h2v-2h2v-2h2l.48-.48c.6.3 1.3.48 2.02.48"/>
                <path d="M12 5a1 1 0 01-1 1 1 1 0 01-1-1 1 1 0 011-1 1 1 0 011 1"/>
            </g>
        </symbol>

        <symbol id="icon-lua" viewBox="0 0 24 24">
            <path fill="var(--blue)" d="M.38 10.377l-.272-.037c-.048.344-.082.695-.101 1.041l.275.016c.018-.34.051-.682.098-1.02zM4.136 3.289l-.184-.205c-.258.232-.509.48-.746.734l.202.188c.231-.248.476-.49.728-.717zM5.769 2.059l-.146-.235c-.296.186-.586.385-.863.594l.166.219c.27-.203.554-.399.843-.578zM1.824 18.369c.185.297.384.586.593.863l.22-.164c-.205-.271-.399-.555-.58-.844l-.233.145zM1.127 16.402l-.255.104c.129.318.274.635.431.943l.005.01.245-.125-.005-.01c-.153-.301-.295-.611-.421-.922zM.298 9.309l.269.063c.076-.332.168-.664.272-.986l-.261-.087c-.108.332-.202.672-.28 1.01zM.274 12.42l-.275.01c.012.348.04.699.083 1.043l.273-.033c-.042-.336-.069-.68-.081-1.02zM.256 14.506c.073.34.162.682.264 1.014l.263-.08c-.1-.326-.187-.658-.258-.99l-.269.056zM11.573.275L11.563 0c-.348.012-.699.039-1.044.082l.034.273c.338-.041.68-.068 1.02-.08zM23.221 8.566c.1.326.186.66.256.992l.27-.059c-.072-.34-.16-.682-.262-1.014l-.264.081zM17.621 1.389c-.309-.164-.627-.314-.947-.449l-.107.252c.314.133.625.281.926.439l.128-.242zM15.693.572c-.332-.105-.67-.199-1.01-.277l-.063.268c.332.076.664.168.988.273l.085-.264zM6.674 1.545c.298-.15.606-.291.916-.418L7.486.873c-.317.127-.632.272-.937.428l-.015.008.125.244.015-.008zM23.727 11.588l.275-.01a11.797 11.797 0 0 0-.082-1.045l-.273.033c.041.338.068.682.08 1.022zM13.654.105c-.346-.047-.696-.08-1.043-.098l-.014.273c.339.018.683.051 1.019.098l.038-.273zM9.544.527l-.058-.27c-.34.072-.681.16-1.014.264l.081.262c.325-.099.659-.185.991-.256zM1.921 5.469l.231.15c.185-.285.384-.566.592-.834l-.217-.17c-.213.276-.417.563-.606.854zM.943 7.318l.253.107c.132-.313.28-.625.439-.924l-.243-.128c-.163.307-.314.625-.449.945zM18.223 21.943l.145.234c.295-.186.586-.385.863-.594l-.164-.219c-.272.204-.557.4-.844.579zM21.248 19.219l.217.17c.215-.273.418-.561.607-.854l-.23-.148c-.186.285-.385.564-.594.832zM19.855 20.715l.184.203c.258-.23.51-.479.746-.732l-.201-.188c-.23.248-.477.488-.729.717zM22.359 17.504l.244.129c.162-.307.314-.625.449-.945l-.254-.107a11.27 11.27 0 0 1-.439.923zM23.617 13.629l.273.039c.049-.346.082-.695.102-1.043l-.275-.014c-.018.338-.051.682-.1 1.018zM23.156 15.621l.264.086c.107-.332.201-.67.279-1.01l-.268-.063c-.077.333-.169.665-.275.987zM22.453 6.672c.154.303.297.617.424.932l.256-.104c-.131-.322-.277-.643-.436-.953l-.244.125zM8.296 23.418c.331.107.67.201 1.009.279l.062-.268c-.331-.076-.663-.168-.986-.273l-.085.262zM10.335 23.889c.345.049.696.082 1.043.102l.014-.275c-.339-.018-.682-.051-1.019-.098l-.038.271zM17.326 22.449c-.303.154-.613.297-.926.424l.104.256c.318-.131.639-.275.947-.434l.004-.002-.123-.246-.006.002zM4.613 21.467c.274.213.562.418.854.605l.149-.23c-.285-.184-.565-.385-.833-.592l-.17.217zM12.417 23.725l.009.275c.348-.014.699-.041 1.045-.084l-.035-.271c-.336.041-.68.068-1.019.08zM6.37 22.604c.307.162.625.314.946.449l.107-.254c-.313-.133-.624-.279-.924-.439l-.129.244zM3.083 20.041c.233.258.48.51.734.746l.188-.201c-.249-.23-.49-.477-.717-.729l-.205.184zM14.445 23.475l.059.27c.34-.074.68-.162 1.014-.266l-.082-.262c-.325.099-.659.185-.991.258zM21.18.129A2.689 2.689 0 1 0 21.18 5.507 2.689 2.689 0 1 0 21.18.129zM15.324 15.447c0 .471.314.66.852.66.67 0 1.297-.396 1.297-1.016v-.645c-.23.107-.379.141-1.107.24-.735.109-1.042.306-1.042.761zM12 2.818c-5.07 0-9.18 4.109-9.18 9.18 0 5.068 4.11 9.18 9.18 9.18 5.07 0 9.18-4.111 9.18-9.18 0-5.07-4.11-9.18-9.18-9.18zm-2.487 13.77H5.771v-6.023h.769v5.346h2.974v.677zm4.13 0h-.619v-.67c-.405.57-.811.793-1.446.793-.843 0-1.38-.463-1.38-1.182v-3.271h.686v3c0 .52.347.85.893.85.719 0 1.181-.578 1.181-1.461v-2.389h.686v4.33zm-.53-8.393c0-1.484 1.205-2.689 2.689-2.689s2.688 1.205 2.688 2.689-1.203 2.688-2.688 2.688-2.689-1.203-2.689-2.688zm5.567 7.856v.52c-.223.059-.33.074-.471.074-.34 0-.637-.238-.711-.57-.381.406-.918.637-1.471.637-.877 0-1.422-.463-1.422-1.248 0-.527.256-.916.76-1.123.266-.107.414-.141 1.389-.264.545-.066.719-.191.719-.48v-.182c0-.412-.348-.645-.967-.645-.645 0-.957.24-1.016.77h-.693c.041-1 .686-1.404 1.734-1.404 1.066 0 1.627.412 1.627 1.182v2.412c0 .215.133.338.373.338.041-.002.074-.002.149-.017z"/>
        </symbol>

        <symbol id="icon-nestjs" viewBox="0 0 24 24">
            <path fill="var(--red)" d="M14.131.047c-.173 0-.334.037-.483.087.316.21.49.49.576.806.007.043.019.074.025.117a.681.681 0 0 1 .013.112c.024.545-.143.614-.26.936-.18.415-.13.861.086 1.22a.74.74 0 0 0 .074.137c-.235-1.568 1.073-1.803 1.314-2.293.019-.428-.334-.713-.613-.911a1.37 1.37 0 0 0-.732-.21zM16.102.4c-.024.143-.006.106-.012.18-.006.05-.006.112-.012.161-.013.05-.025.1-.044.149-.012.05-.03.1-.05.149l-.067.142c-.02.025-.031.05-.05.075l-.037.055a2.152 2.152 0 0 1-.093.124c-.037.038-.068.081-.112.112v.006c-.037.031-.074.068-.118.1-.13.099-.278.173-.415.266-.043.03-.087.056-.124.093a.906.906 0 0 0-.118.099c-.043.037-.074.074-.111.118-.031.037-.068.08-.093.124a1.582 1.582 0 0 0-.087.13c-.025.05-.043.093-.068.142-.019.05-.037.093-.05.143a2.007 2.007 0 0 0-.043.155c-.006.025-.006.056-.012.08-.007.025-.007.05-.013.075 0 .05-.006.105-.006.155 0 .037 0 .074.006.111 0 .05.006.1.019.155.006.05.018.1.03.15.02.049.032.098.05.148.013.03.031.062.044.087l-1.426-.552c-.241-.068-.477-.13-.719-.186l-.39-.093c-.372-.074-.75-.13-1.128-.167-.013 0-.019-.006-.031-.006A11.082 11.082 0 0 0 8.9 2.855c-.378.025-.756.074-1.134.136a12.45 12.45 0 0 0-.837.174l-.279.074c-.092.037-.18.08-.266.118l-.205.093c-.012.006-.024.006-.03.012-.063.031-.118.056-.174.087a2.738 2.738 0 0 0-.236.118c-.043.018-.086.043-.124.062a.559.559 0 0 1-.055.03c-.056.032-.112.063-.162.094a1.56 1.56 0 0 0-.148.093c-.044.03-.087.055-.124.086-.006.007-.013.007-.019.013-.037.025-.08.056-.118.087l-.012.012-.093.074c-.012.007-.025.019-.037.025-.031.025-.062.056-.093.08-.006.013-.019.02-.025.025-.037.038-.074.069-.111.106-.007 0-.007.006-.013.012a1.742 1.742 0 0 0-.111.106c-.007.006-.007.012-.013.012a1.454 1.454 0 0 0-.093.1c-.012.012-.03.024-.043.036a1.374 1.374 0 0 1-.106.112c-.006.012-.018.019-.024.03-.05.05-.093.1-.143.15l-.018.018c-.1.106-.205.211-.317.304-.111.1-.229.192-.347.273a3.777 3.777 0 0 1-.762.421c-.13.056-.267.106-.403.149-.26.056-.527.161-.756.18-.05 0-.105.012-.155.018l-.155.037-.149.056c-.05.019-.099.044-.148.068-.044.031-.093.056-.137.087a1.011 1.011 0 0 0-.124.106c-.043.03-.087.074-.124.111-.037.043-.074.08-.105.124-.031.05-.068.093-.093.143a1.092 1.092 0 0 0-.087.142c-.025.056-.05.106-.068.161-.019.05-.037.106-.056.161-.012.05-.025.1-.03.15 0 .005-.007.012-.007.018-.012.056-.012.13-.019.167C.006 7.95 0 7.986 0 8.03a.657.657 0 0 0 .074.31v.006c.019.037.044.075.069.112.024.037.05.074.08.111.031.031.068.069.106.1a.906.906 0 0 0 .117.099c.149.13.186.173.378.272.031.019.062.031.1.05.006 0 .012.006.018.006 0 .013 0 .019.006.031a1.272 1.272 0 0 0 .08.298c.02.037.032.074.05.111.007.013.013.025.02.031.024.05.049.093.073.137l.093.13c.031.037.069.08.106.118.037.037.074.068.118.105 0 0 .006.006.012.006.037.031.074.062.112.087a.986.986 0 0 0 .136.08c.043.025.093.05.142.069a.73.73 0 0 0 .124.043c.007.006.013.006.025.012.025.007.056.013.08.019-.018.335-.024.65.026.762.055.124.328-.254.6-.688-.036.428-.061.93 0 1.079.069.155.44-.329.763-.862 4.395-1.016 8.405 2.02 8.826 6.31-.08-.67-.905-1.041-1.283-.948-.186.458-.502 1.047-1.01 1.413.043-.41.025-.83-.062-1.24a4.009 4.009 0 0 1-.769 1.562c-.588.043-1.177-.242-1.487-.67-.025-.018-.031-.055-.05-.08-.018-.043-.037-.087-.05-.13a.515.515 0 0 1-.037-.13c-.006-.044-.006-.087-.006-.137v-.093a.992.992 0 0 1 .031-.13c.013-.043.025-.086.044-.13.024-.043.043-.087.074-.13.105-.298.105-.54-.087-.682a.706.706 0 0 0-.118-.062c-.024-.006-.055-.018-.08-.025l-.05-.018a.847.847 0 0 0-.13-.031.472.472 0 0 0-.13-.019 1.01 1.01 0 0 0-.136-.012c-.031 0-.062.006-.093.006a.484.484 0 0 0-.137.019c-.043.006-.086.012-.13.024a1.068 1.068 0 0 0-.13.044c-.043.018-.08.037-.124.056-.037.018-.074.043-.118.062-1.444.942-.582 3.148.403 3.787-.372.068-.75.148-.855.229l-.013.012c.267.161.546.298.837.416.397.13.818.247 1.004.297v.006a5.996 5.996 0 0 0 1.562.112c2.746-.192 4.996-2.281 5.405-5.033l.037.161c.019.112.043.23.056.347v.006c.012.056.018.112.025.162v.024c.006.056.012.112.012.162.006.068.012.136.012.204v.1c0 .03.007.067.007.098 0 .038-.007.075-.007.112v.087c0 .043-.006.08-.006.124 0 .025 0 .05-.006.08 0 .044-.006.087-.006.137-.006.018-.006.037-.006.055l-.02.143c0 .019 0 .037-.005.056-.007.062-.019.118-.025.18v.012l-.037.174v.018l-.037.167c0 .007-.007.02-.007.025a1.663 1.663 0 0 1-.043.168v.018c-.019.062-.037.118-.05.174-.006.006-.006.012-.006.012l-.056.186c-.024.062-.043.118-.068.18-.025.062-.043.124-.068.18-.025.062-.05.117-.074.18h-.007c-.024.055-.05.117-.08.173a.302.302 0 0 1-.019.043c-.006.006-.006.013-.012.019a5.867 5.867 0 0 1-1.742 2.082c-.05.031-.099.069-.149.106-.012.012-.03.018-.043.03a2.603 2.603 0 0 1-.136.094l.018.037h.007l.26-.037h.006c.161-.025.322-.056.483-.087.044-.006.093-.019.137-.031l.087-.019c.043-.006.086-.018.13-.024.037-.013.074-.02.111-.031.62-.15 1.221-.354 1.798-.595a9.926 9.926 0 0 1-3.85 3.142c.714-.05 1.426-.167 2.114-.366a9.903 9.903 0 0 0 5.857-4.68 9.893 9.893 0 0 1-1.667 3.986 9.758 9.758 0 0 0 1.655-1.376 9.824 9.824 0 0 0 2.61-5.268c.21.98.272 1.99.18 2.987 4.474-6.241.371-12.712-1.346-14.416-.006-.013-.012-.019-.012-.031-.006.006-.006.006-.006.012 0-.006 0-.006-.007-.012 0 .074-.006.148-.012.223a8.34 8.34 0 0 1-.062.415c-.03.136-.068.273-.105.41-.044.13-.093.266-.15.396a5.322 5.322 0 0 1-.185.378 4.735 4.735 0 0 1-.477.688c-.093.111-.192.21-.292.31a3.994 3.994 0 0 1-.18.155l-.142.124a3.459 3.459 0 0 1-.347.241 4.295 4.295 0 0 1-.366.211c-.13.062-.26.118-.39.174a4.364 4.364 0 0 1-.818.223c-.143.025-.285.037-.422.05a4.914 4.914 0 0 1-.297.012 4.66 4.66 0 0 1-.422-.025 3.137 3.137 0 0 1-.421-.062 3.136 3.136 0 0 1-.415-.105h-.007c.137-.013.273-.025.41-.05a4.493 4.493 0 0 0 .818-.223c.136-.05.266-.112.39-.174.13-.062.248-.13.372-.204.118-.08.235-.161.347-.248.112-.087.217-.18.316-.279.105-.093.198-.198.291-.304.093-.111.18-.223.26-.334.013-.019.026-.044.038-.062.062-.1.124-.199.18-.298a4.272 4.272 0 0 0 .334-.775c.044-.13.075-.266.106-.403.025-.142.05-.278.062-.415.012-.142.025-.285.025-.421 0-.1-.007-.199-.013-.298a6.726 6.726 0 0 0-.05-.415 4.493 4.493 0 0 0-.092-.415c-.044-.13-.087-.267-.137-.397-.05-.13-.111-.26-.173-.384-.069-.124-.137-.248-.211-.366a6.843 6.843 0 0 0-.248-.34c-.093-.106-.186-.212-.285-.317a3.878 3.878 0 0 0-.161-.155c-.28-.217-.57-.421-.862-.607a1.154 1.154 0 0 0-.124-.062 2.415 2.415 0 0 0-.589-.26Z"/>
        </symbol>

        <symbol id="icon-nextjs" viewBox="0 0 24 24">
            <path fill="var(--text)" d="M18.665 21.978C16.758 23.255 14.465 24 12 24 5.377 24 0 18.623 0 12S5.377 0 12 0s12 5.377 12 12c0 3.583-1.574 6.801-4.067 9.001L9.219 7.2H7.2v9.596h1.615V9.251l9.85 12.727Zm-3.332-8.533 1.6 2.061V7.2h-1.6v6.245Z"/>
        </symbol>

        <symbol id="icon-nginx" viewBox="0 0 24 24">
            <path fill="var(--green)" d="M12 0L1.605 6v12L12 24l10.395-6V6L12 0zm6 16.59c0 .705-.646 1.29-1.529 1.29-.631 0-1.351-.255-1.801-.81l-6-7.141v6.66c0 .721-.57 1.29-1.274 1.29H7.32c-.721 0-1.29-.6-1.29-1.29V7.41c0-.705.63-1.29 1.5-1.29.646 0 1.38.255 1.83.81l5.97 7.141V7.41c0-.721.6-1.29 1.29-1.29h.075c.72 0 1.29.6 1.29 1.29v9.18H18z"/>
        </symbol>

        <symbol id="icon-nodejs" viewBox="0 0 24 24">
            <path fill="var(--green)" d="M11.998,24c-0.321,0-0.641-0.084-0.922-0.247l-2.936-1.737c-0.438-0.245-0.224-0.332-0.08-0.383 c0.585-0.203,0.703-0.25,1.328-0.604c0.065-0.037,0.151-0.023,0.218,0.017l2.256,1.339c0.082,0.045,0.197,0.045,0.272,0l8.795-5.076 c0.082-0.047,0.134-0.141,0.134-0.238V6.921c0-0.099-0.053-0.192-0.137-0.242l-8.791-5.072c-0.081-0.047-0.189-0.047-0.271,0 L3.075,6.68C2.99,6.729,2.936,6.825,2.936,6.921v10.15c0,0.097,0.054,0.189,0.139,0.235l2.409,1.392 c1.307,0.654,2.108-0.116,2.108-0.89V7.787c0-0.142,0.114-0.253,0.256-0.253h1.115c0.139,0,0.255,0.112,0.255,0.253v10.021 c0,1.745-0.95,2.745-2.604,2.745c-0.508,0-0.909,0-2.026-0.551L2.28,18.675c-0.57-0.329-0.922-0.945-0.922-1.604V6.921 c0-0.659,0.353-1.275,0.922-1.603l8.795-5.082c0.557-0.315,1.296-0.315,1.848,0l8.794,5.082c0.57,0.329,0.924,0.944,0.924,1.603 v10.15c0,0.659-0.354,1.273-0.924,1.604l-8.794,5.078C12.643,23.916,12.324,24,11.998,24z M19.099,13.993 c0-1.9-1.284-2.406-3.987-2.763c-2.731-0.361-3.009-0.548-3.009-1.187c0-0.528,0.235-1.233,2.258-1.233 c1.807,0,2.473,0.389,2.747,1.607c0.024,0.115,0.129,0.199,0.247,0.199h1.141c0.071,0,0.138-0.031,0.186-0.081 c0.048-0.054,0.074-0.123,0.067-0.196c-0.177-2.098-1.571-3.076-4.388-3.076c-2.508,0-4.004,1.058-4.004,2.833 c0,1.925,1.488,2.457,3.895,2.695c2.88,0.282,3.103,0.703,3.103,1.269c0,0.983-0.789,1.402-2.642,1.402 c-2.327,0-2.839-0.584-3.011-1.742c-0.02-0.124-0.126-0.215-0.253-0.215h-1.137c-0.141,0-0.254,0.112-0.254,0.253 c0,1.482,0.806,3.248,4.655,3.248C17.501,17.007,19.099,15.91,19.099,13.993z"/>
        </symbol>

        <symbol id="icon-php" viewBox="0 0 24 24">
            <path fill="var(--purple)" d="M7.01 10.207h-.944l-.515 2.648h.838c.556 0 .97-.105 1.242-.314.272-.21.455-.559.55-1.049.092-.47.05-.802-.124-.995-.175-.193-.523-.29-1.047-.29zM12 5.688C5.373 5.688 0 8.514 0 12s5.373 6.313 12 6.313S24 15.486 24 12c0-3.486-5.373-6.312-12-6.312zm-3.26 7.451c-.261.25-.575.438-.917.551-.336.108-.765.164-1.285.164H5.357l-.327 1.681H3.652l1.23-6.326h2.65c.797 0 1.378.209 1.744.628.366.418.476 1.002.33 1.752a2.836 2.836 0 0 1-.305.847c-.143.255-.33.49-.561.703zm4.024.715l.543-2.799c.063-.318.039-.536-.068-.651-.107-.116-.336-.174-.687-.174H11.46l-.704 3.625H9.388l1.23-6.327h1.367l-.327 1.682h1.218c.767 0 1.295.134 1.586.401s.378.7.263 1.299l-.572 2.944h-1.389zm7.597-2.265a2.782 2.782 0 0 1-.305.847c-.143.255-.33.49-.561.703a2.44 2.44 0 0 1-.917.551c-.336.108-.765.164-1.286.164h-1.18l-.327 1.682h-1.378l1.23-6.326h2.649c.797 0 1.378.209 1.744.628.366.417.477 1.001.331 1.751zM17.766 10.207h-.943l-.516 2.648h.838c.557 0 .971-.105 1.242-.314.272-.21.455-.559.551-1.049.092-.47.049-.802-.125-.995s-.524-.29-1.047-.29z"/>
        </symbol>

        <symbol id="icon-prisma" viewBox="0 0 24 24">
            <path fill="var(--text)" d="M21.8068 18.2848L13.5528.7565c-.207-.4382-.639-.7273-1.1286-.7541-.5023-.0293-.9523.213-1.2062.6253L2.266 15.1271c-.2773.4518-.2718 1.0091.0158 1.4555l4.3759 6.7786c.2608.4046.7127.6388 1.1823.6388.1332 0 .267-.0188.3987-.0577l12.7019-3.7568c.3891-.1151.7072-.3904.8737-.7553s.1633-.7828-.0075-1.1454zm-1.8481.7519L9.1814 22.2242c-.3292.0975-.6448-.1873-.5756-.5194l3.8501-18.4386c.072-.3448.5486-.3996.699-.0803l7.1288 15.138c.1344.2856-.019.6224-.325.7128z"/>
        </symbol>

        <symbol id="icon-python" viewBox="0 0 24 24">
            <path fill="var(--blue)" d="M14.25.18l.9.2.73.26.59.3.45.32.34.34.25.34.16.33.1.3.04.26.02.2-.01.13V8.5l-.05.63-.13.55-.21.46-.26.38-.3.31-.33.25-.35.19-.35.14-.33.1-.3.07-.26.04-.21.02H8.77l-.69.05-.59.14-.5.22-.41.27-.33.32-.27.35-.2.36-.15.37-.1.35-.07.32-.04.27-.02.21v3.06H3.17l-.21-.03-.28-.07-.32-.12-.35-.18-.36-.26-.36-.36-.35-.46-.32-.59-.28-.73-.21-.88-.14-1.05-.05-1.23.06-1.22.16-1.04.24-.87.32-.71.36-.57.4-.44.42-.33.42-.24.4-.16.36-.1.32-.05.24-.01h.16l.06.01h8.16v-.83H6.18l-.01-2.75-.02-.37.05-.34.11-.31.17-.28.25-.26.31-.23.38-.2.44-.18.51-.15.58-.12.64-.1.71-.06.77-.04.84-.02 1.27.05zm-6.3 1.98l-.23.33-.08.41.08.41.23.34.33.22.41.09.41-.09.33-.22.23-.34.08-.41-.08-.41-.23-.33-.33-.22-.41-.09-.41.09zm13.09 3.95l.28.06.32.12.35.18.36.27.36.35.35.47.32.59.28.73.21.88.14 1.04.05 1.23-.06 1.23-.16 1.04-.24.86-.32.71-.36.57-.4.45-.42.33-.42.24-.4.16-.36.09-.32.05-.24.02-.16-.01h-8.22v.82h5.84l.01 2.76.02.36-.05.34-.11.31-.17.29-.25.25-.31.24-.38.2-.44.17-.51.15-.58.13-.64.09-.71.07-.77.04-.84.01-1.27-.04-1.07-.14-.9-.2-.73-.25-.59-.3-.45-.33-.34-.34-.25-.34-.16-.33-.1-.3-.04-.25-.02-.2.01-.13v-5.34l.05-.64.13-.54.21-.46.26-.38.3-.32.33-.24.35-.2.35-.14.33-.1.3-.06.26-.04.21-.02.13-.01h5.84l.69-.05.59-.14.5-.21.41-.28.33-.32.27-.35.2-.36.15-.36.1-.35.07-.32.04-.28.02-.21V6.07h2.09l.14.01zm-6.47 14.25l-.23.33-.08.41.08.41.23.33.33.23.41.08.41-.08.33-.23.23-.33.08-.41-.08-.41-.23-.33-.33-.23-.41-.08-.41.08z"/>
        </symbol>

        <symbol id="icon-qemu" viewBox="0 0 24 24">
            <path fill="var(--orange)" d="M12.003.064C5.376.064 0 5.407 0 12s5.376 11.936 12.003 11.936c2.169 0 4.2-.57 5.955-1.57l.624 1.57h4.841l-1.893-4.679A11.845 11.845 0 0024 12C24 5.407 18.63.064 12.003.064zM8.818 2.03c.398.339.324.198.86.134.61-.397.893.942 1.147.195.748.097 1.542.34 2.25.584a3.447 3.447 0 011.859 1.128l-.014.007.35.463c.045.08.082.164.12.248.142 1.205 1.48 1.19 2.377 1.625.767.272 1.69.686 1.785 1.611-.193-.042-.941-.921-1.53-1.007a3.919 3.919 0 01-1.094-.255L14.86 6.38v-.007a3.035 3.035 0 01-.309-.053v.013l-2.927-.362c.048.033.1.077.148.12l3 .585v-.007l.209.053.839.188c.166.016.334.043.47.067.856.236 1.868.194 2.571.792-.184.352-1.21.153-1.719.108-.062-.012-.131-.023-.194-.034l-.034-.007c-.696-.113-1.411-.12-2.081.088h-.007a3.193 3.193 0 00-.671.302c-.968.563-2.164.767-2.967 1.577-.787.847-.739 2.012-.604 3.095h.033v.275c.013.095.028.19.04.282.41 2.19 1.5 4.2 1.84 6.412.065.843.203 1.932.309 2.618-.306-.091-.475-1.462-.544-1.007a38.196 38.196 0 00-3.565-5.25c-.853-1.004-1.697-2.06-2.712-2.894-.685-.528-.468-1.55-.537-2.302-.23-.926-.094-1.848.06-2.773.313-.963.418-1.968.846-2.893.653-.581.669-1.63 1.303-2.135.094.058.157.085.2.1l.068.008h.007c.09-.095-.888-1.116.02-.712.035-.537.854-.128.866-.597zm3.847 2.182c-.323.009-.574.13-.645.335-.114.33.273.755.866.96.594.205 1.168.109 1.282-.221.114-.33-.272-.762-.866-.967a1.842 1.842 0 00-.637-.107z"/>
        </symbol>

        <symbol id="icon-react" viewBox="0 0 24 24">
            <path fill="var(--blue)" d="M14.23 12.004a2.236 2.236 0 0 1-2.235 2.236 2.236 2.236 0 0 1-2.236-2.236 2.236 2.236 0 0 1 2.235-2.236 2.236 2.236 0 0 1 2.236 2.236zm2.648-10.69c-1.346 0-3.107.96-4.888 2.622-1.78-1.653-3.542-2.602-4.887-2.602-.41 0-.783.093-1.106.278-1.375.793-1.683 3.264-.973 6.365C1.98 8.917 0 10.42 0 12.004c0 1.59 1.99 3.097 5.043 4.03-.704 3.113-.39 5.588.988 6.38.32.187.69.275 1.102.275 1.345 0 3.107-.96 4.888-2.624 1.78 1.654 3.542 2.603 4.887 2.603.41 0 .783-.09 1.106-.275 1.374-.792 1.683-3.263.973-6.365C22.02 15.096 24 13.59 24 12.004c0-1.59-1.99-3.097-5.043-4.032.704-3.11.39-5.587-.988-6.38-.318-.184-.688-.277-1.092-.278zm-.005 1.09v.006c.225 0 .406.044.558.127.666.382.955 1.835.73 3.704-.054.46-.142.945-.25 1.44-.96-.236-2.006-.417-3.107-.534-.66-.905-1.345-1.727-2.035-2.447 1.592-1.48 3.087-2.292 4.105-2.295zm-9.77.02c1.012 0 2.514.808 4.11 2.28-.686.72-1.37 1.537-2.02 2.442-1.107.117-2.154.298-3.113.538-.112-.49-.195-.964-.254-1.42-.23-1.868.054-3.32.714-3.707.19-.09.4-.127.563-.132zm4.882 3.05c.455.468.91.992 1.36 1.564-.44-.02-.89-.034-1.345-.034-.46 0-.915.01-1.36.034.44-.572.895-1.096 1.345-1.565zM12 8.1c.74 0 1.477.034 2.202.093.406.582.802 1.203 1.183 1.86.372.64.71 1.29 1.018 1.946-.308.655-.646 1.31-1.013 1.95-.38.66-.773 1.288-1.18 1.87-.728.063-1.466.098-2.21.098-.74 0-1.477-.035-2.202-.093-.406-.582-.802-1.204-1.183-1.86-.372-.64-.71-1.29-1.018-1.946.303-.657.646-1.313 1.013-1.954.38-.66.773-1.286 1.18-1.868.728-.064 1.466-.098 2.21-.098zm-3.635.254c-.24.377-.48.763-.704 1.16-.225.39-.435.782-.635 1.174-.265-.656-.49-1.31-.676-1.947.64-.15 1.315-.283 2.015-.386zm7.26 0c.695.103 1.365.23 2.006.387-.18.632-.405 1.282-.66 1.933-.2-.39-.41-.783-.64-1.174-.225-.392-.465-.774-.705-1.146zm3.063.675c.484.15.944.317 1.375.498 1.732.74 2.852 1.708 2.852 2.476-.005.768-1.125 1.74-2.857 2.475-.42.18-.88.342-1.355.493-.28-.958-.646-1.956-1.1-2.98.45-1.017.81-2.01 1.085-2.964zm-13.395.004c.278.96.645 1.957 1.1 2.98-.45 1.017-.812 2.01-1.086 2.964-.484-.15-.944-.318-1.37-.5-1.732-.737-2.852-1.706-2.852-2.474 0-.768 1.12-1.742 2.852-2.476.42-.18.88-.342 1.356-.494zm11.678 4.28c.265.657.49 1.312.676 1.948-.64.157-1.316.29-2.016.39.24-.375.48-.762.705-1.158.225-.39.435-.788.636-1.18zm-9.945.02c.2.392.41.783.64 1.175.23.39.465.772.705 1.143-.695-.102-1.365-.23-2.006-.386.18-.63.406-1.282.66-1.933zM17.92 16.32c.112.493.2.968.254 1.423.23 1.868-.054 3.32-.714 3.708-.147.09-.338.128-.563.128-1.012 0-2.514-.807-4.11-2.28.686-.72 1.37-1.536 2.02-2.44 1.107-.118 2.154-.3 3.113-.54zm-11.83.01c.96.234 2.006.415 3.107.532.66.905 1.345 1.727 2.035 2.446-1.595 1.483-3.092 2.295-4.11 2.295-.22-.005-.406-.05-.553-.132-.666-.38-.955-1.834-.73-3.703.054-.46.142-.944.25-1.438zm4.56.64c.44.02.89.034 1.345.034.46 0 .915-.01 1.36-.034-.44.572-.895 1.095-1.345 1.565-.455-.47-.91-.993-1.36-1.565z"/>
        </symbol>

        <symbol id="icon-ruby" viewBox="0 0 24 24">
            <path fill="var(--red)" d="M20.156.083c3.033.525 3.893 2.598 3.829 4.77L24 4.822 22.635 22.71 4.89 23.926h.016C3.433 23.864.15 23.729 0 19.139l1.645-3 2.819 6.586.503 1.172 2.805-9.144-.03.007.016-.03 9.255 2.956-1.396-5.431-.99-3.9 8.82-.569-.615-.51L16.5 2.114 20.159.073l-.003.01zM0 19.089zM5.13 5.073c3.561-3.533 8.157-5.621 9.922-3.84 1.762 1.777-.105 6.105-3.673 9.636-3.563 3.532-8.103 5.734-9.864 3.957-1.766-1.777.045-6.217 3.612-9.75l.003-.003z"/>
        </symbol>

        <symbol id="icon-sass" viewBox="0 0 24 24">
            <path fill="var(--purple)" d="M12 0c6.627 0 12 5.373 12 12s-5.373 12-12 12S0 18.627 0 12 5.373 0 12 0zM9.615 15.998c.175.645.156 1.248-.024 1.792l-.065.18c-.024.061-.052.12-.078.176-.14.29-.326.56-.555.81-.698.759-1.672 1.047-2.09.805-.45-.262-.226-1.335.584-2.19.871-.918 2.12-1.509 2.12-1.509v-.003l.108-.061zm9.911-10.861c-.542-2.133-4.077-2.834-7.422-1.645-1.989.707-4.144 1.818-5.693 3.267C4.568 8.48 4.275 9.98 4.396 10.607c.427 2.211 3.457 3.657 4.703 4.73v.006c-.367.18-3.056 1.529-3.686 2.925-.675 1.47.105 2.521.615 2.655 1.575.436 3.195-.36 4.065-1.649.84-1.261.766-2.881.404-3.676.496-.135 1.08-.195 1.83-.104 2.101.24 2.521 1.56 2.43 2.1-.09.539-.523.854-.674.944-.15.091-.195.12-.181.181.015.09.091.09.21.075.165-.03 1.096-.45 1.141-1.471.045-1.29-1.186-2.729-3.375-2.7-.9.016-1.471.091-1.875.256-.03-.045-.061-.075-.105-.105-1.35-1.455-3.855-2.475-3.75-4.41.03-.705.285-2.564 4.8-4.814 3.705-1.846 6.661-1.335 7.171-.21.733 1.604-1.576 4.59-5.431 5.024-1.47.165-2.235-.404-2.431-.615-.209-.225-.239-.24-.314-.194-.12.06-.045.255 0 .375.12.3.585.825 1.396 1.095.704.225 2.43.359 4.5-.45 2.324-.899 4.139-3.405 3.614-5.505l.073.067z"/>
        </symbol>

        <symbol id="icon-shell" viewBox="0 0 24 24">
            <path fill="var(--text)" d="M21.038,4.9l-7.577-4.498C13.009,0.134,12.505,0,12,0c-0.505,0-1.009,0.134-1.462,0.403L2.961,4.9 C2.057,5.437,1.5,6.429,1.5,7.503v8.995c0,1.073,0.557,2.066,1.462,2.603l7.577,4.497C10.991,23.866,11.495,24,12,24 c0.505,0,1.009-0.134,1.461-0.402l7.577-4.497c0.904-0.537,1.462-1.529,1.462-2.603V7.503C22.5,6.429,21.943,5.437,21.038,4.9z M15.17,18.946l0.013,0.646c0.001,0.078-0.05,0.167-0.111,0.198l-0.383,0.22c-0.061,0.031-0.111-0.007-0.112-0.085L14.57,19.29 c-0.328,0.136-0.66,0.169-0.872,0.084c-0.04-0.016-0.057-0.075-0.041-0.142l0.139-0.584c0.011-0.046,0.036-0.092,0.069-0.121 c0.012-0.011,0.024-0.02,0.036-0.026c0.022-0.011,0.043-0.014,0.062-0.006c0.229,0.077,0.521,0.041,0.802-0.101 c0.357-0.181,0.596-0.545,0.592-0.907c-0.003-0.328-0.181-0.465-0.613-0.468c-0.55,0.001-1.064-0.107-1.072-0.917 c-0.007-0.667,0.34-1.361,0.889-1.8l-0.007-0.652c-0.001-0.08,0.048-0.168,0.111-0.2l0.37-0.236 c0.061-0.031,0.111,0.007,0.112,0.087l0.006,0.653c0.273-0.109,0.511-0.138,0.726-0.088c0.047,0.012,0.067,0.076,0.048,0.151 l-0.144,0.578c-0.011,0.044-0.036,0.088-0.065,0.116c-0.012,0.012-0.025,0.021-0.038,0.028c-0.019,0.01-0.038,0.013-0.057,0.009 c-0.098-0.022-0.332-0.073-0.699,0.113c-0.385,0.195-0.52,0.53-0.517,0.778c0.003,0.297,0.155,0.387,0.681,0.396 c0.7,0.012,1.003,0.318,1.01,1.023C16.105,17.747,15.736,18.491,15.17,18.946z M19.143,17.859c0,0.06-0.008,0.116-0.058,0.145 l-1.916,1.164c-0.05,0.029-0.09,0.004-0.09-0.056v-0.494c0-0.06,0.037-0.093,0.087-0.122l1.887-1.129 c0.05-0.029,0.09-0.004,0.09,0.056V17.859z M20.459,6.797l-7.168,4.427c-0.894,0.523-1.553,1.109-1.553,2.187v8.833 c0,0.645,0.26,1.063,0.66,1.184c-0.131,0.023-0.264,0.039-0.398,0.039c-0.42,0-0.833-0.114-1.197-0.33L3.226,18.64 c-0.741-0.44-1.201-1.261-1.201-2.142V7.503c0-0.881,0.46-1.702,1.201-2.142l7.577-4.498c0.363-0.216,0.777-0.33,1.197-0.33 c0.419,0,0.833,0.114,1.197,0.33l7.577,4.498c0.624,0.371,1.046,1.013,1.164,1.732C21.686,6.557,21.12,6.411,20.459,6.797z"/>
        </symbol>

        <symbol id="icon-tailwind" viewBox="0 0 24 24">
            <path fill="var(--blue)" d="M12.001,4.8c-3.2,0-5.2,1.6-6,4.8c1.2-1.6,2.6-2.2,4.2-1.8c0.913,0.228,1.565,0.89,2.288,1.624 C13.666,10.618,15.027,12,18.001,12c3.2,0,5.2-1.6,6-4.8c-1.2,1.6-2.6,2.2-4.2,1.8c-0.913-0.228-1.565-0.89-2.288-1.624 C16.337,6.182,14.976,4.8,12.001,4.8z M6.001,12c-3.2,0-5.2,1.6-6,4.8c1.2-1.6,2.6-2.2,4.2-1.8c0.913,0.228,1.565,0.89,2.288,1.624 c1.177,1.194,2.538,2.576,5.512,2.576c3.2,0,5.2-1.6,6-4.8c-1.2,1.6-2.6,2.2-4.2,1.8c-0.913-0.228-1.565-0.89-2.288-1.624 C10.337,13.382,8.976,12,6.001,12z"/>
        </symbol>

        <symbol id="icon-typescript" viewBox="0 0 24 24">
            <path fill="var(--blue)" d="M1.125 0C.502 0 0 .502 0 1.125v21.75C0 23.498.502 24 1.125 24h21.75c.623 0 1.125-.502 1.125-1.125V1.125C24 .502 23.498 0 22.875 0zm17.363 9.75c.612 0 1.154.037 1.627.111a6.38 6.38 0 0 1 1.306.34v2.458a3.95 3.95 0 0 0-.643-.361 5.093 5.093 0 0 0-.717-.26 5.453 5.453 0 0 0-1.426-.2c-.3 0-.573.028-.819.086a2.1 2.1 0 0 0-.623.242c-.17.104-.3.229-.393.374a.888.888 0 0 0-.14.49c0 .196.053.373.156.529.104.156.252.304.443.444s.423.276.696.41c.273.135.582.274.926.416.47.197.892.407 1.266.628.374.222.695.473.963.753.268.279.472.598.614.957.142.359.214.776.214 1.253 0 .657-.125 1.21-.373 1.656a3.033 3.033 0 0 1-1.012 1.085 4.38 4.38 0 0 1-1.487.596c-.566.12-1.163.18-1.79.18a9.916 9.916 0 0 1-1.84-.164 5.544 5.544 0 0 1-1.512-.493v-2.63a5.033 5.033 0 0 0 3.237 1.2c.333 0 .624-.03.872-.09.249-.06.456-.144.623-.25.166-.108.29-.234.373-.38a1.023 1.023 0 0 0-.074-1.089 2.12 2.12 0 0 0-.537-.5 5.597 5.597 0 0 0-.807-.444 27.72 27.72 0 0 0-1.007-.436c-.918-.383-1.602-.852-2.053-1.405-.45-.553-.676-1.222-.676-2.005 0-.614.123-1.141.369-1.582.246-.441.58-.804 1.004-1.089a4.494 4.494 0 0 1 1.47-.629 7.536 7.536 0 0 1 1.77-.201zm-15.113.188h9.563v2.166H9.506v9.646H6.789v-9.646H3.375z"/>
        </symbol>

        <symbol id="icon-vim" viewBox="0 0 24 24">
            <path fill="var(--green)"  d="M24 11.986h-.027l-4.318-4.318 4.303-4.414V1.461l-.649-.648h-8.198l-.66.605v1.045L12.015.027V0L12 .014 11.986 0v.027l-1.29 1.291-.538-.539H2.035l-.638.692v1.885l.616.616h.72v5.31L.027 11.987H0L.014 12 0 12.014h.027l2.706 2.706v6.467l.907.523h2.322l1.857-1.904 4.166 4.166V24l.015-.014.014.014v-.028l2.51-2.509h.485c.111 0 .211-.07.25-.179l.146-.426c.028-.084.012-.172-.037-.239l1.462-1.462-.612 1.962c-.043.141.036.289.177.332.025.008.052.012.078.012h1.824c.106-.001.201-.064.243-.163l.165-.394c.025-.065.024-.138-.004-.203-.027-.065-.08-.116-.146-.142-.029-.012-.062-.019-.097-.02h-.075l.84-2.644h1.232l-1.016 3.221c-.043.141.036.289.176.332.025.008.052.012.079.012h2.002c.11 0 .207-.066.248-.17l.164-.428c.051-.138-.021-.29-.158-.341-.029-.011-.06-.017-.091-.017h-.145l1.131-3.673c.027-.082.012-.173-.039-.24l-.375-.504-.003-.005c-.051-.064-.127-.102-.209-.102h-1.436c-.071 0-.141.03-.19.081l-.4.439h-.624l-.042-.046 4.445-4.445H24L23.986 12l.014-.014zM9.838 21.139l1.579-4.509h-.501l.297-.304h1.659l-1.563 4.555h.623l-.079.258H9.838zm3.695-7.516l.15.151-.269.922-.225.226h-.969l-.181-.181.311-.871.288-.247h.895zM5.59 20.829H3.877l-.262-.15V3.091H2.379l-.1-.1V1.815l.143-.154h7.371l.213.214v1.108l-.142.173H8.785v8.688l8.807-8.688h-2.086l-.175-.188V1.805l.121-.111h7.49l.132.133v1.07L12.979 13.25h-.373c-.015-.001-.028 0-.042.001l-.02.003c-.045.01-.086.03-.119.06l-.343.295-.004.003c-.033.031-.059.069-.073.111l-.296.83-6.119 6.276zm14.768-3.952l.474-.519h1.334l.309.415-1.265 4.107h.493l-.08.209H19.84l1.124-3.564h-2.015l-1.077 3.391h.424l-.073.174h-1.605l1.107-3.548h-2.096l-1.062 3.339h.436l-.072.209H13.27l1.514-4.46H14.198l.091-.271h1.65l.519.537h.906l.491-.554h1.061l.489.535h.953z"/>
        </symbol>

        <symbol id="icon-vite" viewBox="0 0 24 24">
            <path fill="var(--purple)" d="m8.286 10.578.512-8.657a.306.306 0 0 1 .247-.282L17.377.006a.306.306 0 0 1 .353.385l-1.558 5.403a.306.306 0 0 0 .352.385l2.388-.46a.306.306 0 0 1 .332.438l-6.79 13.55-.123.19a.294.294 0 0 1-.252.14c-.177 0-.35-.152-.305-.369l1.095-5.301a.306.306 0 0 0-.388-.355l-1.433.435a.306.306 0 0 1-.389-.354l.69-3.375a.306.306 0 0 0-.37-.36l-2.32.536a.306.306 0 0 1-.374-.316zm14.976-7.926L17.284 3.74l-.544 1.887 2.077-.4a.8.8 0 0 1 .84.369.8.8 0 0 1 .034.783L12.9 19.93l-.013.025-.015.023-.122.19a.801.801 0 0 1-.672.37.826.826 0 0 1-.634-.302.8.8 0 0 1-.16-.67l1.029-4.981-1.12.34a.81.81 0 0 1-.86-.262.802.802 0 0 1-.165-.67l.63-3.08-2.027.468a.808.808 0 0 1-.768-.233.81.81 0 0 1-.217-.6l.389-6.57-7.44-1.33a.612.612 0 0 0-.64.906L11.58 23.691a.612.612 0 0 0 1.066-.004l11.26-20.135a.612.612 0 0 0-.644-.9z"/>
        </symbol>

        <symbol id="icon-vue" viewBox="0 0 24 24">
            <path fill="var(--green)" d="M24,1.61H14.06L12,5.16,9.94,1.61H0L12,22.39ZM12,14.08,5.16,2.23H9.59L12,6.41l2.41-4.18h4.43Z"/>
        </symbol>

        <symbol id="icon-webpack" viewBox="0 0 24 24">
            <path fill="var(--blue)" d="M22.1987 18.498l-9.7699 5.5022v-4.2855l6.0872-3.3338 3.6826 2.117zm.6683-.6026V6.3884l-3.5752 2.0544v7.396zm-21.0657.6026l9.7699 5.5022v-4.2855L5.484 16.3809l-3.6826 2.117zm-.6683-.6026V6.3884l3.5751 2.0544v7.396zm.4183-12.2515l10.0199-5.644v4.1434L5.152 7.6586l-.0489.028zm20.8975 0l-10.02-5.644v4.1434l6.4192 3.5154.0489.028 3.5518-2.0427zm-10.8775 13.096l-6.0056-3.2873V8.9384l6.0054 3.4525v6.349zm.8575 0l6.0053-3.2873V8.9384l-6.0053 3.4525zM5.9724 8.1845l6.0287-3.3015L18.03 8.1845l-6.0288 3.4665z"/>
        </symbol>

        <symbol id="icon-web-assembly" viewBox="0 0 24 24">
            <path fill="var(--purple)" d="M14.745,0c0,0.042,0,0.085,0,0.129c0,1.52-1.232,2.752-2.752,2.752c-1.52,0-2.752-1.232-2.752-2.752 c0-0.045,0-0.087,0-0.129H0v24h24V0H14.745z M11.454,21.431l-1.169-5.783h-0.02l-1.264,5.783H7.39l-1.824-8.497h1.59l1.088,5.783 h0.02l1.311-5.783h1.487l1.177,5.854h0.02l1.242-5.854h1.561l-2.027,8.497H11.454z M20.209,21.431l-0.542-1.891h-2.861l-0.417,1.891 h-1.59l2.056-8.497h2.509l2.5,8.497H20.209z M17.812,15.028l-0.694,3.118h2.159l-0.796-3.118H17.812z"/>
        </symbol>

        <!-- Social / Contact / Portfolio icons -->

        <symbol id="icon-debian" viewBox="0 0 24 24">
            <path fill="var(--red)" d="M13.88 12.685c-.4 0 .08.2.601.28.14-.1.27-.22.39-.33a3.001 3.001 0 01-.99.05m2.14-.53c.23-.33.4-.69.47-1.06-.06.27-.2.5-.33.73-.75.47-.07-.27 0-.56-.8 1.01-.11.6-.14.89m.781-2.05c.05-.721-.14-.501-.2-.221.07.04.13.5.2.22M12.38.31c.2.04.45.07.42.12.23-.05.28-.1-.43-.12m.43.12l-.15.03.14-.01V.43m6.633 9.944c.02.64-.2.95-.38 1.5l-.35.181c-.28.54.03.35-.17.78-.44.39-1.34 1.22-1.62 1.301-.201 0 .14-.25.19-.34-.591.4-.481.6-1.371.85l-.03-.06c-2.221 1.04-5.303-1.02-5.253-3.842-.03.17-.07.13-.12.2a3.551 3.552 0 012.001-3.501 3.361 3.362 0 013.732.48 3.341 3.342 0 00-2.721-1.3c-1.18.01-2.281.76-2.651 1.57-.6.38-.67 1.47-.93 1.661-.361 2.601.66 3.722 2.38 5.042.27.19.08.21.12.35a4.702 4.702 0 01-1.53-1.16c.23.33.47.66.8.91-.55-.18-1.27-1.3-1.48-1.35.93 1.66 3.78 2.921 5.261 2.3a6.203 6.203 0 01-2.33-.28c-.33-.16-.77-.51-.7-.57a5.802 5.803 0 005.902-.84c.44-.35.93-.94 1.07-.95-.2.32.04.16-.12.44.44-.72-.2-.3.46-1.24l.24.33c-.09-.6.74-1.321.66-2.262.19-.3.2.3 0 .97.29-.74.08-.85.15-1.46.08.2.18.42.23.63-.18-.7.2-1.2.28-1.6-.09-.05-.28.3-.32-.53 0-.37.1-.2.14-.28-.08-.05-.26-.32-.38-.861.08-.13.22.33.34.34-.08-.42-.2-.75-.2-1.08-.34-.68-.12.1-.4-.3-.34-1.091.3-.25.34-.74.54.77.84 1.96.981 2.46-.1-.6-.28-1.2-.49-1.76.16.07-.26-1.241.21-.37A7.823 7.824 0 0017.702 1.6c.18.17.42.39.33.42-.75-.45-.62-.48-.73-.67-.61-.25-.65.02-1.06 0C15.082.73 14.862.8 13.8.4l.05.23c-.77-.25-.9.1-1.73 0-.05-.04.27-.14.53-.18-.741.1-.701-.14-1.431.03.17-.13.36-.21.55-.32-.6.04-1.44.35-1.18.07C9.6.68 7.847 1.3 6.867 2.22L6.838 2c-.45.54-1.96 1.611-2.08 2.311l-.131.03c-.23.4-.38.85-.57 1.261-.3.52-.45.2-.4.28-.6 1.22-.9 2.251-1.16 3.102.18.27 0 1.65.07 2.76-.3 5.463 3.84 10.776 8.363 12.006.67.23 1.65.23 2.49.25-.99-.28-1.12-.15-2.08-.49-.7-.32-.85-.7-1.34-1.13l.2.35c-.971-.34-.57-.42-1.361-.67l.21-.27c-.31-.03-.83-.53-.97-.81l-.34.01c-.41-.501-.63-.871-.61-1.161l-.111.2c-.13-.21-1.52-1.901-.8-1.511-.13-.12-.31-.2-.5-.55l.14-.17c-.35-.44-.64-1.02-.62-1.2.2.24.32.3.45.33-.88-2.172-.93-.12-1.601-2.202l.15-.02c-.1-.16-.18-.34-.26-.51l.06-.6c-.63-.74-.18-3.102-.09-4.402.07-.54.53-1.1.88-1.981l-.21-.04c.4-.71 2.341-2.872 3.241-2.761.43-.55-.09 0-.18-.14.96-.991 1.26-.7 1.901-.88.7-.401-.6.16-.27-.151 1.2-.3.85-.7 2.421-.85.16.1-.39.14-.52.26 1-.49 3.151-.37 4.562.27 1.63.77 3.461 3.011 3.531 5.132l.08.02c-.04.85.13 1.821-.17 2.711l.2-.42M9.54 13.236l-.05.28c.26.35.47.73.8 1.01-.24-.47-.42-.66-.75-1.3m.62-.02c-.14-.15-.22-.34-.31-.52.08.32.26.6.43.88l-.12-.36m10.945-2.382l-.07.15c-.1.76-.34 1.511-.69 2.212.4-.73.65-1.541.75-2.362M12.45.12c.27-.1.66-.05.95-.12-.37.03-.74.05-1.1.1l.15.02M3.006 5.142c.07.57-.43.8.11.42.3-.66-.11-.18-.1-.42m-.64 2.661c.12-.39.15-.62.2-.84-.35.44-.17.53-.2.83"/>
        </symbol>

        <symbol id="icon-codeberg" viewBox="0 -1 24 25">
            <path fill="currentColor" stroke="none" d="M11.955.49A12 12 0 0 0 0 12.49a12 12 0 0 0 1.832 6.373L11.838 5.928a.187.14 0 0 1 .324 0l10.006 12.935A12 12 0 0 0 24 12.49a12 12 0 0 0-12-12 12 12 0 0 0-.045 0zm.375 6.467l4.416 16.553a12 12 0 0 0 5.137-4.213z"/>
        </symbol>

        <symbol id="icon-codepen" viewBox="0 -1 24 26">
            <path fill="currentColor" stroke="none" d="M18.144 13.067v-2.134L16.55 12zm1.276 1.194a.628.628 0 01-.006.083l-.005.028-.011.053-.01.031c-.005.016-.01.031-.017.047l-.014.03a.78.78 0 01-.021.043l-.019.03a.57.57 0 01-.08.1l-.026.025a.602.602 0 01-.036.03l-.029.022-.01.008-6.782 4.522a.637.637 0 01-.708 0L4.864 14.79l-.01-.008a.599.599 0 01-.065-.052l-.026-.025-.032-.034-.021-.028a.588.588 0 01-.067-.11l-.014-.031a.644.644 0 01-.017-.047l-.01-.03c-.004-.018-.008-.036-.01-.054l-.006-.028a.628.628 0 01-.006-.083V9.739c0-.028.002-.055.006-.083l.005-.027.011-.054.01-.03a.574.574 0 01.12-.217l.031-.034.026-.025a.62.62 0 01.065-.052l.01-.008 6.782-4.521a.638.638 0 01.708 0l6.782 4.521.01.008.03.022.035.03c.01.008.017.016.026.025a.545.545 0 01.08.1l.019.03a.633.633 0 01.021.043l.014.03c.007.016.012.032.017.047l.01.031c.004.018.008.036.01.054l.006.027a.619.619 0 01.006.083zM12 0C5.373 0 0 5.372 0 12 0 18.627 5.373 24 12 24c6.628 0 12-5.372 12-12 0-6.627-5.372-12-12-12m0 10.492L9.745 12 12 13.51 14.255 12zm.638 4.124v2.975l4.996-3.33-2.232-1.493zm-6.272-.356l4.996 3.33v-2.974l-2.764-1.849zm11.268-4.52l-4.996-3.33v2.974l2.764 1.85zm-6.272-.356V6.41L6.366 9.74l2.232 1.493zm-5.506 1.549v2.134L7.45 12Z"/>
        </symbol>

        <symbol id="icon-email" viewBox="0 0 24 24">
            <path stroke="currentColor" fill="currentColor" d="M20 4H4c-1.1 0-1.99.9-1.99 2L2 18c0 1.1.9 2 2 2h16c1.1 0 2-.9 2-2V6c0-1.1-.9-2-2-2zm0 4-8 5-8-5V6l8 5 8-5v2z"></path>
        </symbol>

        <symbol id="icon-git" viewBox="0 0 24 24">
            <path fill="var(--orange)" d="M23.546 10.93L13.067.452c-.604-.603-1.582-.603-2.188 0L8.708 2.627l2.76 2.76c.645-.215 1.379-.07 1.889.441.516.515.658 1.258.438 1.9l2.658 2.66c.645-.223 1.387-.078 1.9.435.721.72.721 1.884 0 2.604-.719.719-1.881.719-2.6 0-.539-.541-.674-1.337-.404-1.996L12.86 8.955v6.525c.176.086.342.203.488.348.713.721.713 1.883 0 2.6-.719.721-1.889.721-2.609 0-.719-.719-.719-1.879 0-2.598.182-.18.387-.316.605-.406V8.835c-.217-.091-.424-.222-.6-.401-.545-.545-.676-1.342-.396-2.009L7.636 3.7.45 10.881c-.6.605-.6 1.584 0 2.189l10.48 10.477c.604.604 1.582.604 2.186 0l10.43-10.43c.605-.603.605-1.582 0-2.187"/>
        </symbol>

        <symbol id="icon-github" viewBox="0 -1 24 26">
            <path fill="currentColor" stroke="none" d="M12 .297c-6.63 0-12 5.373-12 12 0 5.303 3.438 9.8 8.205 11.385.6.113.82-.258.82-.577 0-.285-.01-1.04-.015-2.04-3.338.724-4.042-1.61-4.042-1.61C4.422 18.07 3.633 17.7 3.633 17.7c-1.087-.744.084-.729.084-.729 1.205.084 1.838 1.236 1.838 1.236 1.07 1.835 2.809 1.305 3.495.998.108-.776.417-1.305.76-1.605-2.665-.3-5.466-1.332-5.466-5.93 0-1.31.465-2.38 1.235-3.22-.135-.303-.54-1.523.105-3.176 0 0 1.005-.322 3.3 1.23.96-.267 1.98-.399 3-.405 1.02.006 2.04.138 3 .405 2.28-1.552 3.285-1.23 3.285-1.23.645 1.653.24 2.873.12 3.176.765.84 1.23 1.91 1.23 3.22 0 4.61-2.805 5.625-5.475 5.92.42.36.81 1.096.81 2.22 0 1.606-.015 2.896-.015 3.286 0 .315.21.69.825.57C20.565 22.092 24 17.592 24 12.297c0-6.627-5.373-12-12-12"/>
        </symbol>

        <symbol id="icon-gpg-key" viewBox="0 0 24 24">
            <path fill="currentColor" d="M12.65 10A5.99 5.99 0 0 0 7 6c-3.31 0-6 2.69-6 6s2.69 6 6 6a5.99 5.99 0 0 0 5.65-4H17v4h4v-4h2v-4H12.65zM7 14c-1.1 0-2-.9-2-2s.9-2 2-2 2 .9 2 2-.9 2-2 2z" />
        </symbol>

        <symbol id="icon-keepassxc" viewBox="0 0 24 24">
            <path fill="var(--green)" d="M12 0C5.378 0 0 5.378 0 12c0 6.623 5.378 12 12 12 6.623 0 12-5.377 12-12 0-6.622-5.377-12-12-12zm0 .791a11.203 11.203 0 0 1 11.209 11.21A11.202 11.202 0 0 1 12 23.208 11.203 11.203 0 0 1 .791 12 11.203 11.203 0 0 1 12.001.791zm0 1.871a9.356 9.356 0 0 0-1.705.162A1.746 1.746 0 0 0 12 4.95a1.746 1.746 0 0 0 1.706-2.126A9.342 9.342 0 0 0 12 2.662zM7.2 4a9.338 9.338 0 0 0-4.54 8 9.338 9.338 0 0 0 18.677 0 9.338 9.338 0 0 0-4.54-7.998 4.888 4.888 0 0 1-2.701 5.365l-.12 2.066 1.482 1.483-1.483 1.482.989.989-.989.988.12 1.857L12 20.328l-2.096-2.096V9.367A4.89 4.89 0 0 1 7.2 4zm3.4 6.543v6.99h.7v-6.99z"/>
        </symbol>

        <symbol id="icon-linux" viewBox="0 0 24 24">
            <path fill="var(--text)" d="M12.504 0c-.155 0-.315.008-.48.021-4.226.333-3.105 4.807-3.17 6.298-.076 1.092-.3 1.953-1.05 3.02-.885 1.051-2.127 2.75-2.716 4.521-.278.832-.41 1.684-.287 2.489a.424.424 0 00-.11.135c-.26.268-.45.6-.663.839-.199.199-.485.267-.797.4-.313.136-.658.269-.864.68-.09.189-.136.394-.132.602 0 .199.027.4.055.536.058.399.116.728.04.97-.249.68-.28 1.145-.106 1.484.174.334.535.47.94.601.81.2 1.91.135 2.774.6.926.466 1.866.67 2.616.47.526-.116.97-.464 1.208-.946.587-.003 1.23-.269 2.26-.334.699-.058 1.574.267 2.577.2.025.134.063.198.114.333l.003.003c.391.778 1.113 1.132 1.884 1.071.771-.06 1.592-.536 2.257-1.306.631-.765 1.683-1.084 2.378-1.503.348-.199.629-.469.649-.853.023-.4-.2-.811-.714-1.376v-.097l-.003-.003c-.17-.2-.25-.535-.338-.926-.085-.401-.182-.786-.492-1.046h-.003c-.059-.054-.123-.067-.188-.135a.357.357 0 00-.19-.064c.431-1.278.264-2.55-.173-3.694-.533-1.41-1.465-2.638-2.175-3.483-.796-1.005-1.576-1.957-1.56-3.368.026-2.152.236-6.133-3.544-6.139zm.529 3.405h.013c.213 0 .396.062.584.198.19.135.33.332.438.533.105.259.158.459.166.724 0-.02.006-.04.006-.06v.105a.086.086 0 01-.004-.021l-.004-.024a1.807 1.807 0 01-.15.706.953.953 0 01-.213.335.71.71 0 00-.088-.042c-.104-.045-.198-.064-.284-.133a1.312 1.312 0 00-.22-.066c.05-.06.146-.133.183-.198.053-.128.082-.264.088-.402v-.02a1.21 1.21 0 00-.061-.4c-.045-.134-.101-.2-.183-.333-.084-.066-.167-.132-.267-.132h-.016c-.093 0-.176.03-.262.132a.8.8 0 00-.205.334 1.18 1.18 0 00-.09.4v.019c.002.089.008.179.02.267-.193-.067-.438-.135-.607-.202a1.635 1.635 0 01-.018-.2v-.02a1.772 1.772 0 01.15-.768c.082-.22.232-.406.43-.533a.985.985 0 01.594-.2zm-2.962.059h.036c.142 0 .27.048.399.135.146.129.264.288.344.465.09.199.14.4.153.667v.004c.007.134.006.2-.002.266v.08c-.03.007-.056.018-.083.024-.152.055-.274.135-.393.2.012-.09.013-.18.003-.267v-.015c-.012-.133-.04-.2-.082-.333a.613.613 0 00-.166-.267.248.248 0 00-.183-.064h-.021c-.071.006-.13.04-.186.132a.552.552 0 00-.12.27.944.944 0 00-.023.33v.015c.012.135.037.2.08.334.046.134.098.2.166.268.01.009.02.018.034.024-.07.057-.117.07-.176.136a.304.304 0 01-.131.068 2.62 2.62 0 01-.275-.402 1.772 1.772 0 01-.155-.667 1.759 1.759 0 01.08-.668 1.43 1.43 0 01.283-.535c.128-.133.26-.2.418-.2zm1.37 1.706c.332 0 .733.065 1.216.399.293.2.523.269 1.052.468h.003c.255.136.405.266.478.399v-.131a.571.571 0 01.016.47c-.123.31-.516.643-1.063.842v.002c-.268.135-.501.333-.775.465-.276.135-.588.292-1.012.267a1.139 1.139 0 01-.448-.067 3.566 3.566 0 01-.322-.198c-.195-.135-.363-.332-.612-.465v-.005h-.005c-.4-.246-.616-.512-.686-.71-.07-.268-.005-.47.193-.6.224-.135.38-.271.483-.336.104-.074.143-.102.176-.131h.002v-.003c.169-.202.436-.47.839-.601.139-.036.294-.065.466-.065zm2.8 2.142c.358 1.417 1.196 3.475 1.735 4.473.286.534.855 1.659 1.102 3.024.156-.005.33.018.513.064.646-1.671-.546-3.467-1.089-3.966-.22-.2-.232-.335-.123-.335.59.534 1.365 1.572 1.646 2.757.13.535.16 1.104.021 1.67.067.028.135.06.205.067 1.032.534 1.413.938 1.23 1.537v-.043c-.06-.003-.12 0-.18 0h-.016c.151-.467-.182-.825-1.065-1.224-.915-.4-1.646-.336-1.77.465-.008.043-.013.066-.018.135-.068.023-.139.053-.209.064-.43.268-.662.669-.793 1.187-.13.533-.17 1.156-.205 1.869v.003c-.02.334-.17.838-.319 1.35-1.5 1.072-3.58 1.538-5.348.334a2.645 2.645 0 00-.402-.533 1.45 1.45 0 00-.275-.333c.182 0 .338-.03.465-.067a.615.615 0 00.314-.334c.108-.267 0-.697-.345-1.163-.345-.467-.931-.995-1.788-1.521-.63-.4-.986-.87-1.15-1.396-.165-.534-.143-1.085-.015-1.645.245-1.07.873-2.11 1.274-2.763.107-.065.037.135-.408.974-.396.751-1.14 2.497-.122 3.854a8.123 8.123 0 01.647-2.876c.564-1.278 1.743-3.504 1.836-5.268.048.036.217.135.289.202.218.133.38.333.59.465.21.201.477.335.876.335.039.003.075.006.11.006.412 0 .73-.134.997-.268.29-.134.52-.334.74-.4h.005c.467-.135.835-.402 1.044-.7zm2.185 8.958c.037.6.343 1.245.882 1.377.588.134 1.434-.333 1.791-.765l.211-.01c.315-.007.577.01.847.268l.003.003c.208.199.305.53.391.876.085.4.154.78.409 1.066.486.527.645.906.636 1.14l.003-.007v.018l-.003-.012c-.015.262-.185.396-.498.595-.63.401-1.746.712-2.457 1.57-.618.737-1.37 1.14-2.036 1.191-.664.053-1.237-.2-1.574-.898l-.005-.003c-.21-.4-.12-1.025.056-1.69.176-.668.428-1.344.463-1.897.037-.714.076-1.335.195-1.814.12-.465.308-.797.641-.984l.045-.022zm-10.814.049h.01c.053 0 .105.005.157.014.376.055.706.333 1.023.752l.91 1.664.003.003c.243.533.754 1.064 1.189 1.637.434.598.77 1.131.729 1.57v.006c-.057.744-.48 1.148-1.125 1.294-.645.135-1.52.002-2.395-.464-.968-.536-2.118-.469-2.857-.602-.369-.066-.61-.2-.723-.4-.11-.2-.113-.602.123-1.23v-.004l.002-.003c.117-.334.03-.752-.027-1.118-.055-.401-.083-.71.043-.94.16-.334.396-.4.69-.533.294-.135.64-.202.915-.47h.002v-.002c.256-.268.445-.601.668-.838.19-.201.38-.336.663-.336zm7.159-9.074c-.435.201-.945.535-1.488.535-.542 0-.97-.267-1.28-.466-.154-.134-.28-.268-.373-.335-.164-.134-.144-.333-.074-.333.109.016.129.134.199.2.096.066.215.2.36.333.292.2.68.467 1.167.467.485 0 1.053-.267 1.398-.466.195-.135.445-.334.648-.467.156-.136.149-.267.279-.267.128.016.034.134-.147.332a8.097 8.097 0 01-.69.468zm-1.082-1.583V5.64c-.006-.02.013-.042.029-.05.074-.043.18-.027.26.004.063 0 .16.067.15.135-.006.049-.085.066-.135.066-.055 0-.092-.043-.141-.068-.052-.018-.146-.008-.163-.065zm-.551 0c-.02.058-.113.049-.166.066-.047.025-.086.068-.14.068-.05 0-.13-.02-.136-.068-.01-.066.088-.133.15-.133.08-.031.184-.047.259-.005.019.009.036.03.03.05v.02h.003z"/>
        </symbol>

        <!-- Admonition icons -->

        <symbol id="icon-caution" stroke="currentColor" fill="currentColor" stroke-width="0" viewBox="0 0 24 24">
            <path fill="none" d="M0 0h24v24H0z" />
            <path d="M12 1 3 5v6c0 5.55 3.84 10.74 9 12 5.16-1.26 9-6.45 9-12V5l-9-4zm-1 6h2v2h-2V7zm0 4h2v6h-2v-6z" />
        </symbol>

        <symbol id="icon-important" stroke="currentColor" fill="currentColor" stroke-width="0" viewBox="0 0 24 24">
            <path fill="none" d="M0 0h24v24H0z" />
            <path d="M12 2C6.48 2 2 6.48 2 12s4.48 10 10 10 10-4.48 10-10S17.52 2 12 2zm1 15h-2v-6h2v6zm0-8h-2V7h2v2z" />
        </symbol>

        <symbol id="icon-note" stroke="currentColor" fill="currentColor" stroke-width="0" viewBox="0 0 24 24">
            <path fill="none" d="M0 0h24v24H0z" />
            <path d="M17 3H7c-1.1 0-1.99.9-1.99 2L5 21l7-3 7 3V5c0-1.1-.9-2-2-2z" />
        </symbol>

        <symbol id="icon-tip" stroke="currentColor" fill="currentColor" stroke-width="0" viewBox="0 0 24 24">
            <path fill="none" d="M0 0h24v24H0z" />
            <path d="M7 20h4c0 1.1-.9 2-2 2s-2-.9-2-2zm-2-1h8v-2H5v2zm11.5-9.5c0 3.82-2.66 5.86-3.77 6.5H5.27c-1.11-.64-3.77-2.68-3.77-6.5C1.5 5.36 4.86 2 9 2s7.5 3.36 7.5 7.5zm4.87-2.13L20 8l1.37.63L22 10l.63-1.37L24 8l-1.37-.63L22 6l-.63 1.37zM19 6l.94-2.06L22 3l-2.06-.94L19 0l-.94 2.06L16 3l2.06.94L19 6z" />
        </symbol>

        <symbol id="icon-warning" stroke="currentColor" fill="currentColor" stroke-width="0" viewBox="0 0 24 24">
            <path d="M1 21h22L12 2 1 21zm12-3h-2v-2h2v2zm0-4h-2v-4h2v4z" />
        </symbol>

        <!-- Other -->

        <symbol id="icon-link" stroke="currentColor" fill="currentColor" stroke-width="0" viewBox="0 0 24 24">
            <path fill="none" d="M0 0h24v24H0z"></path>
            <path d="M3.9 12c0-1.71 1.39-3.1 3.1-3.1h4V7H7c-2.76 0-5 2.24-5 5s2.24 5 5 5h4v-1.9H7c-1.71 0-3.1-1.39-3.1-3.1zM8 13h8v-2H8v2zm9-6h-4v1.9h4c1.71 0 3.1 1.39 3.1 3.1s-1.39 3.1-3.1 3.1h-4V17h4c2.76 0 5-2.24 5-5s-2.24-5-5-5z"></path>
        </symbol>
    </defs>
</svg>

