<svg aria-hidden="true" style="position: absolute; width: 0; height: 0; overflow: hidden;" version="1.1" xmlns="http://www.w3.org/2000/svg" xmlns:xlink="http://www.w3.org/1999/xlink">
    <defs>

        <!-- Technology / Programming language Icons -->

        <symbol id="icon-ansible" viewBox="0 0 16 16">
            <path fill="none" stroke="var(--red)" stroke-linecap="round" stroke-linejoin="round" d="M 3.75,10.25 7,2.75 10.25,10.25 5.5,6.5 m 7.867943,1.8099767 C 13.454529,7.8868424 13.5,7.4487314 13.5,7 13.5,3.4101491 10.589851,0.5 7,0.5 3.4101491,0.5 0.5,3.4101491 0.5,7 c 0,3.589851 2.9101491,6.5 6.5,6.5" />
        </symbol>

        <symbol id="icon-apollo" viewBox="0 0 16 16">
            <g xmlns="http://www.w3.org/2000/svg" fill="none" stroke="var(--purple)" stroke-linecap="round" stroke-linejoin="round">
                <path d="M12.5 3a.5.5 0 01-.5.5.5.5 0 01-.5-.5.5.5 0 01.5-.5.5.5 0 01.5.5M5 10.5l3-6 3.01 6m-5-2H8"/>
                <path d="M14.12 5.81a6.5 6.5 0 01-3.1 7.94 6.5 6.5 0 01-8.3-1.95 6.5 6.5 0 01.78-8.49 6.5 6.5 0 018.5-.43"/>
            </g>
        </symbol>

        <symbol id="icon-asciidoc" viewBox="0 0 16 16">
            <path fill="none" stroke="var(--red)" stroke-linecap="round" stroke-linejoin="round" d="M3 15 4.7144695 11M5.7787881 8.5 9 1 15 15M1 8.5H8.0000001M1 11H7" />
        </symbol>

        <symbol id="icon-c" viewBox="0 0 16 16">
            <path fill="none" stroke="var(--blue)" stroke-linecap="round" stroke-linejoin="round" d="m 4.0559072,12.951629 c 2.7459832,2.734744 7.1981158,2.734744 9.9441188,0 l -1.789955,-1.782586 c -1.75742,1.750224 -4.6067879,1.750224 -6.3642294,0 -1.7574416,-1.7502236 -1.7574416,-4.587893 0,-6.338097 1.7574415,-1.750224 4.6068094,-1.750224 6.3642294,0 l 0.894977,-0.8912929 0.894978,-0.891293 c -2.746003,-2.73472867 -7.1981359,-2.73472867 -9.944119,0 -2.7459858,2.7347089 -2.7459858,7.1685599 2e-7,9.9032689 z" clip-rule="evenodd" />
        </symbol>

        <symbol id="icon-css" viewBox="0 0 16 16">
            <g fill="none" stroke-linecap="round" stroke-linejoin="round">
                <path stroke="var(--blue)" d="M1.5 1.5h13L13 13l-5 2-5-2z"/>
                <path stroke="var(--blue)" d="M5 4.5h6l-.5 6-2.5 1-2.5-1-.08-1m1.08-2h4"/>
            </g>
        </symbol>

        <symbol id="icon-docker" viewBox="0 0 16 16">
            <path fill="none" stroke="var(--blue)" stroke-linecap="round" stroke-linejoin="round" d="M.5 8.5H11l.75-.5a5.35 5.35 0 010-3.5c1 .6 1 1.88 1.74 2 .77-.09 1.23.01 2 .52 0 0-.97 1.77-2.5 1.98-1.93 3.65-4.5 5.5-6.98 5.5C0 14.5.5 8.5.5 8.5m1 0v-2m0 0h8m-6 2v-4m0 0h4m-2-2h2m-2 6v-6m2 6v-6m2 6v-2" />
        </symbol>

        <symbol id="icon-graphql" viewBox="0 0 16 16">
            <path xmlns="http://www.w3.org/2000/svg" fill="none" stroke="var(--purple)" stroke-linecap="round" stroke-linejoin="round" d="M9 1.5a1 1 0 01-1 1 1 1 0 01-1-1 1 1 0 011-1 1 1 0 011 1m-5.5 3a1 1 0 01-1 1 1 1 0 01-1-1 1 1 0 011-1 1 1 0 011 1m0 7a1 1 0 01-1 1 1 1 0 01-1-1 1 1 0 011-1 1 1 0 011 1m11 0a1 1 0 01-1 1 1 1 0 01-1-1 1 1 0 011-1 1 1 0 011 1m-5.5 3a1 1 0 01-1 1 1 1 0 01-1-1 1 1 0 011-1 1 1 0 011 1m5.5-10a1 1 0 01-1 1 1 1 0 01-1-1 1 1 0 011-1 1 1 0 011 1m-12 1v5m11-5v5m-10 1h9m-6 2.5-3-1.5m6 1.5 3-1.5m-9-2 4-8m5 8-4-8m-5 1 3-1.5m3 0 3 1.5"/>
        </symbol>

        <symbol id="icon-http" viewBox="0 0 16 16">
            <g fill="none" stroke="var(--blue)" stroke-linecap="round" stroke-linejoin="round">
                <path d="M14.5 8A6.5 6.5 0 018 14.5 6.5 6.5 0 011.5 8 6.5 6.5 0 018 1.5 6.5 6.5 0 0114.5 8" />
                <path d="M8 1.5c1.67 2 2.5 4.17 2.5 6.5s-.83 4.5-2.5 6.5m0-13A9.96 9.96 0 005.5 8c0 2.33.83 4.5 2.5 6.5m-5.5-4h11m-11-5h11" />
            </g>
        </symbol>

        <symbol id="icon-laravel" viewBox="0 0 16 16">
            <g fill="none" stroke="var(--red)" stroke-linecap="round" stroke-linejoin="round">
                <path d="M12.51 5.49v3.29M9.64 3.89l2.86 1.6 2.74-1.53M6.5 12v3.5m-3-12 3-1.5" />
                <path d="m3.5 10.5 6-3.5V3.5L12.51 2l2.99 1.5V7l-3.06 1.5L9.5 7" />
                <path d="m.5 2 3-1.5 3 1.5v6.5" />
                <path d="M.5 2v10.17l6 3.33 6.02-3.41V8.5L6.5 12.04l-3-1.54v-7z" />
            </g>
        </symbol>

        <symbol id="icon-markdown" viewBox="0 0 16 16">
            <path xmlns="http://www.w3.org/2000/svg" fill="none" stroke="var(--blue)" stroke-linecap="round" stroke-linejoin="round" d="m9.25 8.25 2.25 2.25 2.25-2.25M3.5 11V5.5l2.04 3 1.96-3V11m4-.5V5M1.65 2.5h12.7c.59 0 1.15.49 1.15 1v9c0 .51-.56 1-1.15 1H1.65c-.59 0-1.15-.49-1.15-1V3.58c0-.5.56-1.08 1.15-1.08"/>
        </symbol>

        <symbol id="icon-npm" viewBox="0 0 16 16">
            <g fill="none" stroke-linecap="round" stroke-linejoin="round">
                <path stroke="var(--red)" d="M2.45 1.5a.95.95 0 00-.95.95v11.1a.95.95 0 00.95.95h11.1a.95.95 0 00.95-.95V2.45a.95.95 0 00-.95-.95z" />
                <path stroke="var(--text)" d="M4.5 4.5h7v7h-2v-5h-2v5h-3z" />
            </g>
        </symbol>

        <symbol id="icon-javascript" viewBox="0 0 16 16">
            <g fill="none" stroke="var(--yellow)" stroke-linecap="round" stroke-linejoin="round">
                <path d="M4.5 11c0 .828427.6715729 1.5 1.5 1.5.8284271 0 1.5-.671573 1.5-1.5V7.5M12.5 8.75C12.5 8.05964406 11.9627417 7.5 11.3 7.5L10.7 7.5C10.0372583 7.5 9.5 8.05964406 9.5 8.75 9.5 9.44035594 10.0372583 10 10.7 10L11.3 10C11.9627417 10 12.5 10.5596441 12.5 11.25 12.5 11.9403559 11.9627417 12.5 11.3 12.5L10.7 12.5C10.0372583 12.5 9.5 11.9403559 9.5 11.25" />
                <path d="m 4,1.5 h 8 c 1.385,0 2.5,1.115 2.5,2.5 v 8 c 0,1.385 -1.115,2.5 -2.5,2.5 H 4 C 2.615,14.5 1.5,13.385 1.5,12 V 4 C 1.5,2.615 2.615,1.5 4,1.5 Z" />
            </g>
        </symbol>

        <symbol id="icon-key" viewBox="0 0 16 16">
            <g xmlns="http://www.w3.org/2000/svg" fill="none" stroke="var(--text)" stroke-linecap="round" stroke-linejoin="round">
                <path d="M10 10.5a4.5 4.5 0 10-4.02-2.48L1.5 12.5v2h2v-2h2v-2h2l.48-.48c.6.3 1.3.48 2.02.48"/>
                <path d="M12 5a1 1 0 01-1 1 1 1 0 01-1-1 1 1 0 011-1 1 1 0 011 1"/>
            </g>
        </symbol>

        <symbol id="icon-lua" viewBox="0 0 16 16">
            <g fill="none" stroke-linecap="round" stroke-linejoin="round">
                <path stroke="var(--text)" d="M10.5 7A1.5 1.5 0 019 8.5 1.5 1.5 0 017.5 7 1.5 1.5 0 019 5.5 1.5 1.5 0 0110.5 7"/>
                <path stroke="var(--blue)" d="M7 2.5a6.5 6.5 0 100 13 6.5 6.5 0 000-13m7-2a1.5 1.5 0 100 3 1.5 1.5 0 000-3"/>
            </g>
        </symbol>

        <symbol id="icon-nestjs" viewBox="0 0 16 16">
            <path xmlns="http://www.w3.org/2000/svg" fill="none" stroke="var(--red)" stroke-linecap="round" stroke-linejoin="round" d="m11.5 15.5.5-3.47C10.5 16 8.34 15.28 7.52 15.5c-.23.06 1.67-.48 2.48-2-.9.33-1.56.5-1.98.5 1.42-1.23 1.91-2.4 1.5-3.5-.34 2.33-4.61 4.11-5.53 2.06-.6-1.37-.28-2.23.97-2.57 0 1.06.51 1.59 1.54 1.59V10.5l1.97.91C8.16 8.14 6 6.83 2 7.5 1 6.35.5 5.52.5 5c0-.78.25-1 1-1s1-.02 2.03-1.05C5.09 1.46 7.1 1.1 9.5 2.57Q9.17 1.625 10.55.5c1.48.73 2.13 1.73 1.94 3s-1.02 1.94-2.5 2c.49.37 1.15.37 2 0a2.41 2.41 0 001.48-2c1.35 1.67 2.02 3.33 2.02 5s-.35 3.02-1.04 4.06l-.5-2.06c-.98 3.5-1.56 4.3-2.47 5Z"/>
        </symbol>

        <symbol id="icon-nextjs" viewBox="0 0 16 16">
            <g fill="none" stroke="var(--text)" stroke-linecap="round" stroke-linejoin="round">
                <path d="M12.33 12.85a6.5 6.5 0 111.55-2.08" />
                <path d="M12.33 12.85 5.5 4.5v7m5-7v3" />
            </g>
        </symbol>

        <symbol id="icon-nginx" viewBox="0 0 16 16">
            <g fill="none" stroke="var(--green)" stroke-linecap="round" stroke-linejoin="round">
                <path d="M5.5 10.5v-5l5 5v-5" />
                <path d="M1.5 11.5v-7L8 .5l6.5 4v7l-6.5 4z" />
            </g>
        </symbol>

        <symbol id="icon-nodejs" viewBox="0 0 16 16">
            <path fill="none" stroke="var(--green)" stroke-linecap="round" stroke-linejoin="round" d="M11.5 6.5v-.17c0-.73-.6-1.33-1.33-1.33H9a1.5 1.5 0 100 3h1a1.5 1.5 0 010 3H9a1.5 1.5 0 01-1.5-1.5M5.5 5v4.5c0 1.5-.08 1.87-.71 2.5-.5.5-1.5.5-1.5.5-.96-.4-1.2-.66-1.79-1v-7L8 .5l6.5 4v7l-6.5 4-2.49-1.53" />
        </symbol>

        <symbol id="icon-php" viewBox="0 0 16 16">
	        <path fill="none" stroke="var(--purple)" stroke-linecap="round" stroke-linejoin="round" d="M0.5,12.5 L0.5,13.24 C0.5,14 1.27360724,14.5 2,14.5 C2.9375516,14.5 3.5,14 3.5,13.2445661 L3.5,6.00089968 C3.5,4.28551107 4.99401107,2.52263547 7.14960413,2.5 C9.49387886,2.5 11,4.0579782 11,5.5 C11.1657296,8.48962302 9.57820404,9.63684469 7.49621582,10.5 L7.49621582,14.5 L15.4979764,14.5 L15.4979764,9 C15.5394484,8.36478228 14.9387379,7.15595371 14.1308258,6.5 C13.1942239,5.80827275 12.0584852,5.50253264 11,5.5 M11.5,14.5 L11.5,11.5 M6,6.5 C6.27614237,6.5 6.5,6.27614237 6.5,6 C6.5,5.72385763 6.27614237,5.5 6,5.5 C5.72385763,5.5 5.5,5.72385763 5.5,6 C5.5,6.27614237 5.72385763,6.5 6,6.5 Z" />
        </symbol>

        <symbol id="icon-prisma" viewBox="0 0 16 16">
            <path xmlns="http://www.w3.org/2000/svg" fill="none" stroke="var(--text)" stroke-linecap="round" stroke-linejoin="round" d="m8 .5 6.5 12.05-10 2.95-3-5zm-3.5 15L8 .5"/>
        </symbol>

        <symbol id="icon-python" viewBox="0 0 16 16">
            <g fill="none" stroke-linecap="round" stroke-linejoin="round">
                <path stroke="var(--blue)" d="M8.5 5.5h-3m6 0V3c0-.8-.7-1.5-1.5-1.5H7c-.8 0-1.5.7-1.5 1.5v2.5H3c-.8 0-1.5.7-1.5 1.5v2c0 .8.7 1.5 1.48 1.5" />
                <path stroke="var(--yellow)" d="M10.5 10.5h-3m-3 0V13c0 .8.7 1.5 1.5 1.5h3c.8 0 1.5-.7 1.5-1.5v-2.5H13c.8 0 1.5-.7 1.5-1.5V7c0-.8-.7-1.5-1.48-1.5H11.5c0 1.5 0 2-1 2h-2" />
                <path stroke="var(--blue)" d="M2.98 10.5H4.5c0-1.5 0-2 1-2h2M7.5 3.5v0" />
                <path stroke="var(--yellow)" d="m 8.5,12.5 v 0" />
            </g>
        </symbol>

        <symbol id="icon-react" viewBox="0 0 16 16">
            <g fill="none" stroke="var(--blue)" stroke-linecap="round" stroke-linejoin="round">
                <path d="M8 10.8c4.14 0 7.5-1.25 7.5-2.8S12.14 5.2 8 5.2.5 6.45.5 8s3.36 2.8 7.5 2.8" />
                <path d="M5.52 9.4c2.07 3.5 4.86 5.72 6.23 4.95 1.37-.78.8-4.24-1.27-7.75C8.41 3.1 5.62.88 4.25 1.65c-1.37.78-.8 4.24 1.27 7.75" />
                <path d="M5.52 6.6c-2.07 3.5-2.64 6.97-1.27 7.75 1.37.77 4.16-1.45 6.23-4.95s2.64-6.97 1.27-7.75C10.38.88 7.59 3.1 5.52 6.6" />
                <path d="M8.5 8a.5.5 0 01-.5.5.5.5 0 01-.5-.5.5.5 0 01.5-.5.5.5 0 01.5.5" />
            </g>
        </symbol>

        <symbol id="icon-ruby" viewBox="0 0 16 16">
	        <path fill="none" stroke="var(--red)" stroke-linecap="round" stroke-linejoin="round" d="M1.5 9.06v2.5c.02.86.36 1.61.9 2.15 1.76 1.76 5.71.65 8.84-2.47 3.12-3.13 4.23-7.08 2.47-8.84a3.1 3.1 0 00-2.15-.9h-2.5M14.5 4l-.25 10.25L4 14.5m4.39-6.11c2.34-2.35 3.29-5.2 2.12-6.37S6.49 1.8 4.14 4.14C1.8 6.5.85 9.34 2.02 10.51s4.02.22 6.37-2.12M5.5 14.5l.25-3.75L11 11l-.25-5.25 3.75-.25" />
        </symbol>

        <symbol id="icon-sass" viewBox="0 0 16 16">
            <path xmlns="http://www.w3.org/2000/svg" fill="none" stroke="var(--purple)" stroke-linecap="round" stroke-linejoin="round" d="M6.75 6.38c1.85 1.07 3.35.74 4.83-.2 1.5-.95 2.7-2.78 1.3-4.15-.7-.68-3.25-.8-5.62.19-2.36.99-4.59 3.02-4.74 4.11-.31 2.19 3.15 2.88 3.64 4.23s.28 1.98-.2 2.83c-.5.85-1.96 1.62-2.8.68-.83-.95 1.67-2.75 2.98-3.25 1.3-.5 3.1-.4 3.69.25.58.64-.07 1.79-.03 1.79"/>
        </symbol>

        <symbol id="icon-shell" viewBox="0 0 16 16">
            <g fill="none" stroke="var(--green)" stroke-linecap="round" stroke-linejoin="round">
                <path d="M2 15.5c-.7 0-1.5-.8-1.5-1.5V5c0-.7.8-1.5 1.5-1.5h9c.7 0 1.5.8 1.5 1.5v9c0 .7-.8 1.5-1.5 1.5z" />
                <path d="m1.2 3.8 3.04-2.5S5.17.5 5.7.5h8.4c.66 0 1.4.73 1.4 1.4v7.73a2.7 2.7 0 01-.7 1.75l-2.68 3.51" />
                <path d="M6 8.75c0-.69-.54-1.25-1.2-1.25h-.6c-.66 0-1.2.56-1.2 1.25S3.54 10 4.2 10h.6c.66 0 1.2.56 1.2 1.25s-.54 1.25-1.2 1.25h-.6c-.66 0-1.2-.56-1.2-1.25M4.5 6.5v1m0 5v1" />
            </g>
        </symbol>

        <symbol id="icon-tailwind" viewBox="0 0 16 16">
	        <path fill="none" stroke="var(--blue)" stroke-linecap="round" stroke-linejoin="round" d="M8 2.5q-3 0-3.75 3.33C5 4.73 5.88 4.31 6.87 4.58c.58.16.98.62 1.43 1.13.74.83 1.6 1.79 3.45 1.79q3 0 3.75-3.33c-.75 1.1-1.63 1.52-2.63 1.25-.57-.16-.97-.62-1.42-1.13C10.7 3.46 9.85 2.5 8 2.5m-3.75 6q-3 0-3.75 3.33c.75-1.1 1.63-1.52 2.63-1.25.57.16.97.62 1.42 1.13.74.83 1.6 1.79 3.45 1.79q3 0 3.75-3.33c-.75 1.1-1.63 1.52-2.62 1.25-.58-.16-.98-.62-1.43-1.13-.74-.83-1.6-1.79-3.45-1.79" />
        </symbol>

        <symbol id="icon-typescript" viewBox="0 0 16 16">
            <g fill="none" stroke="var(--blue)" stroke-linecap="round" stroke-linejoin="round">
                <path d="M4 1.5h8A2.5 2.5 0 0114.5 4v8a2.5 2.5 0 01-2.5 2.5H4A2.5 2.5 0 011.5 12V4A2.5 2.5 0 014 1.5" />
                <path d="M12.5 8.75c0-.69-.54-1.25-1.2-1.25h-.6c-.66 0-1.2.56-1.2 1.25S10.04 10 10.7 10h.6c.66 0 1.2.56 1.2 1.25s-.54 1.25-1.2 1.25h-.6c-.66 0-1.2-.56-1.2-1.25m-3-3.75v5M5 7.5h3" />
            </g>
        </symbol>

        <symbol id="icon-vim" viewBox="0 0 16 16">
            <path fill="none" stroke="var(--green)" stroke-linecap="round" stroke-linejoin="round" d="M1.5 2.5h4m-3 0v11h3l8-11H11l-6.5 9v-9m10 0H9" />
        </symbol>

        <symbol id="icon-vite" viewBox="0 0 16 16">
            <g fill="none" stroke-linecap="round" stroke-linejoin="round">
                <path stroke="var(--purple)" d="m11 5.5 3.5-1-6.5 11-6.5-11 3.5 1" />
                <path stroke="var(--yellow)" d="m6 1.5-.5 5 2-1-1 3L8 8v3l4-7.5-2 .5L11.5.5Z" />
            </g>
        </symbol>

        <symbol id="icon-vue" viewBox="0 0 16 16">
            <g xmlns="http://www.w3.org/2000/svg" fill="none" stroke="var(--green)" stroke-linecap="round" stroke-linejoin="round">
                <path d="M1 1.5h5.44L8 4.56 9.56 1.5H15l-6.99 13z"/>
                <path d="M12.05 1.73 8 9.28 3.95 1.73"/>
            </g>
        </symbol>

        <symbol id="icon-webpack" viewBox="0 0 16 16">
            <g xmlns="http://www.w3.org/2000/svg" fill="none" stroke-linecap="round" stroke-linejoin="round">
                <path stroke="var(--blue)" d="m4.5 10.02-3 1.73M11.47 10l3.03 1.75M8 4V.5"/>
                <path stroke="var(--blue)" d="M11.5 10 8 12l-3.5-2V6L8 4l3.5 2z"/>
                <path stroke="var(--blue)" d="M14.5 11.75 8 15.5l-6.5-3.75v-7.5L8 .5l6.5 3.75zm-13-7.5L8 8m6.5-3.75L8 8m0 0v7.5"/>
            </g>
        </symbol>

        <symbol id="icon-web-assembly" viewBox="0 0 16 16">
            <g xmlns="http://www.w3.org/2000/svg" fill="none" stroke="var(--purple)" stroke-linecap="round" stroke-linejoin="round">
                <path d="m9.5 12.5 1.5-4 1.5 4m-2.5-1h2m-8.5-3 1 4 1.5-4 1.5 4 1-4"/>
                <path d="M10.5 1.5h2a2 2 0 012 2v9a2 2 0 01-2 2h-9a2 2 0 01-2-2v-9c0-1.1.9-2 2-2h2v0"/>
                <path d="M5.5 1.5c0 1.38.5 3 2.5 3s2.5-1.62 2.5-3"/>
            </g>
        </symbol>

        <!-- Social / Contact / Portfolio icons -->

        <symbol id="icon-codeberg" viewBox="0 -1 24 25">
            <path fill="currentColor" stroke="none" d="M11.955.49A12 12 0 0 0 0 12.49a12 12 0 0 0 1.832 6.373L11.838 5.928a.187.14 0 0 1 .324 0l10.006 12.935A12 12 0 0 0 24 12.49a12 12 0 0 0-12-12 12 12 0 0 0-.045 0zm.375 6.467l4.416 16.553a12 12 0 0 0 5.137-4.213z"/>
        </symbol>

        <symbol id="icon-codepen" viewBox="0 -1 24 26">
            <path fill="currentColor" stroke="none" d="M18.144 13.067v-2.134L16.55 12zm1.276 1.194a.628.628 0 01-.006.083l-.005.028-.011.053-.01.031c-.005.016-.01.031-.017.047l-.014.03a.78.78 0 01-.021.043l-.019.03a.57.57 0 01-.08.1l-.026.025a.602.602 0 01-.036.03l-.029.022-.01.008-6.782 4.522a.637.637 0 01-.708 0L4.864 14.79l-.01-.008a.599.599 0 01-.065-.052l-.026-.025-.032-.034-.021-.028a.588.588 0 01-.067-.11l-.014-.031a.644.644 0 01-.017-.047l-.01-.03c-.004-.018-.008-.036-.01-.054l-.006-.028a.628.628 0 01-.006-.083V9.739c0-.028.002-.055.006-.083l.005-.027.011-.054.01-.03a.574.574 0 01.12-.217l.031-.034.026-.025a.62.62 0 01.065-.052l.01-.008 6.782-4.521a.638.638 0 01.708 0l6.782 4.521.01.008.03.022.035.03c.01.008.017.016.026.025a.545.545 0 01.08.1l.019.03a.633.633 0 01.021.043l.014.03c.007.016.012.032.017.047l.01.031c.004.018.008.036.01.054l.006.027a.619.619 0 01.006.083zM12 0C5.373 0 0 5.372 0 12 0 18.627 5.373 24 12 24c6.628 0 12-5.372 12-12 0-6.627-5.372-12-12-12m0 10.492L9.745 12 12 13.51 14.255 12zm.638 4.124v2.975l4.996-3.33-2.232-1.493zm-6.272-.356l4.996 3.33v-2.974l-2.764-1.849zm11.268-4.52l-4.996-3.33v2.974l2.764 1.85zm-6.272-.356V6.41L6.366 9.74l2.232 1.493zm-5.506 1.549v2.134L7.45 12Z"/>
        </symbol>

        <symbol id="icon-email" viewBox="0 0 24 24">
            <path stroke="currentColor" fill="currentColor" d="M20 4H4c-1.1 0-1.99.9-1.99 2L2 18c0 1.1.9 2 2 2h16c1.1 0 2-.9 2-2V6c0-1.1-.9-2-2-2zm0 4-8 5-8-5V6l8 5 8-5v2z"></path>
        </symbol>

        <symbol id="icon-git" viewBox="0 0 16 16">
            <g xmlns="http://www.w3.org/2000/svg" fill="none" stroke-linecap="round" stroke-linejoin="round">
                <path stroke="var(--orange)" d="M8.5 10.5a1 1 0 01-1 1 1 1 0 01-1-1 1 1 0 011-1 1 1 0 011 1m0-6a1 1 0 01-1 1 1 1 0 01-1-1 1 1 0 011-1 1 1 0 011 1m3 3a1 1 0 01-1 1 1 1 0 01-1-1 1 1 0 011-1 1 1 0 011 1m-4-2v4m-1-6-1-1m4 4-1-1"/>
                <path stroke="var(--orange)" d="m9.06 1.06 5.88 5.88a1.5 1.5 0 010 2.12l-5.88 5.88a1.5 1.5 0 01-2.12 0L1.06 9.06a1.5 1.5 0 010-2.12l5.88-5.88a1.5 1.5 0 012.12 0"/>
            </g>
        </symbol>

        <symbol id="icon-github" viewBox="0 -1 24 26">
            <path fill="currentColor" stroke="none" d="M12 .297c-6.63 0-12 5.373-12 12 0 5.303 3.438 9.8 8.205 11.385.6.113.82-.258.82-.577 0-.285-.01-1.04-.015-2.04-3.338.724-4.042-1.61-4.042-1.61C4.422 18.07 3.633 17.7 3.633 17.7c-1.087-.744.084-.729.084-.729 1.205.084 1.838 1.236 1.838 1.236 1.07 1.835 2.809 1.305 3.495.998.108-.776.417-1.305.76-1.605-2.665-.3-5.466-1.332-5.466-5.93 0-1.31.465-2.38 1.235-3.22-.135-.303-.54-1.523.105-3.176 0 0 1.005-.322 3.3 1.23.96-.267 1.98-.399 3-.405 1.02.006 2.04.138 3 .405 2.28-1.552 3.285-1.23 3.285-1.23.645 1.653.24 2.873.12 3.176.765.84 1.23 1.91 1.23 3.22 0 4.61-2.805 5.625-5.475 5.92.42.36.81 1.096.81 2.22 0 1.606-.015 2.896-.015 3.286 0 .315.21.69.825.57C20.565 22.092 24 17.592 24 12.297c0-6.627-5.373-12-12-12"/>
        </symbol>

        <symbol id="icon-gpg-key" viewBox="0 0 24 24">
            <path fill="currentColor" d="M12.65 10A5.99 5.99 0 0 0 7 6c-3.31 0-6 2.69-6 6s2.69 6 6 6a5.99 5.99 0 0 0 5.65-4H17v4h4v-4h2v-4H12.65zM7 14c-1.1 0-2-.9-2-2s.9-2 2-2 2 .9 2 2-.9 2-2 2z" />
        </symbol>

        <!-- Admonition icons -->

        <symbol id="icon-caution" stroke="currentColor" fill="currentColor" stroke-width="0" viewBox="0 0 24 24">
            <path fill="none" d="M0 0h24v24H0z" />
            <path d="M12 1 3 5v6c0 5.55 3.84 10.74 9 12 5.16-1.26 9-6.45 9-12V5l-9-4zm-1 6h2v2h-2V7zm0 4h2v6h-2v-6z" />
        </symbol>

        <symbol id="icon-important" stroke="currentColor" fill="currentColor" stroke-width="0" viewBox="0 0 24 24">
            <path fill="none" d="M0 0h24v24H0z" />
            <path d="M12 2C6.48 2 2 6.48 2 12s4.48 10 10 10 10-4.48 10-10S17.52 2 12 2zm1 15h-2v-6h2v6zm0-8h-2V7h2v2z" />
        </symbol>

        <symbol id="icon-note" stroke="currentColor" fill="currentColor" stroke-width="0" viewBox="0 0 24 24">
            <path fill="none" d="M0 0h24v24H0z" />
            <path d="M17 3H7c-1.1 0-1.99.9-1.99 2L5 21l7-3 7 3V5c0-1.1-.9-2-2-2z" />
        </symbol>

        <symbol id="icon-tip" stroke="currentColor" fill="currentColor" stroke-width="0" viewBox="0 0 24 24">
            <path fill="none" d="M0 0h24v24H0z" />
            <path d="M7 20h4c0 1.1-.9 2-2 2s-2-.9-2-2zm-2-1h8v-2H5v2zm11.5-9.5c0 3.82-2.66 5.86-3.77 6.5H5.27c-1.11-.64-3.77-2.68-3.77-6.5C1.5 5.36 4.86 2 9 2s7.5 3.36 7.5 7.5zm4.87-2.13L20 8l1.37.63L22 10l.63-1.37L24 8l-1.37-.63L22 6l-.63 1.37zM19 6l.94-2.06L22 3l-2.06-.94L19 0l-.94 2.06L16 3l2.06.94L19 6z" />
        </symbol>

        <symbol id="icon-warning" stroke="currentColor" fill="currentColor" stroke-width="0" viewBox="0 0 24 24">
            <path d="M1 21h22L12 2 1 21zm12-3h-2v-2h2v2zm0-4h-2v-4h2v4z" />
        </symbol>

        <!-- Other -->

        <symbol id="icon-link" stroke="currentColor" fill="currentColor" stroke-width="0" viewBox="0 0 24 24">
            <path fill="none" d="M0 0h24v24H0z"></path>
            <path d="M3.9 12c0-1.71 1.39-3.1 3.1-3.1h4V7H7c-2.76 0-5 2.24-5 5s2.24 5 5 5h4v-1.9H7c-1.71 0-3.1-1.39-3.1-3.1zM8 13h8v-2H8v2zm9-6h-4v1.9h4c1.71 0 3.1 1.39 3.1 3.1s-1.39 3.1-3.1 3.1h-4V17h4c2.76 0 5-2.24 5-5s-2.24-5-5-5z"></path>
        </symbol>
    </defs>
</svg>
