<svg aria-hidden="true" style="position: absolute; width: 0; height: 0; overflow: hidden;" version="1.1" xmlns="http://www.w3.org/2000/svg" xmlns:xlink="http://www.w3.org/1999/xlink">
    <defs>
        <symbol id="icon-ansible" viewBox="0 0 16 16">
            <path fill="none" stroke="var(--red)" stroke-linecap="round" stroke-linejoin="round" d="M 3.75,10.25 7,2.75 10.25,10.25 5.5,6.5 m 7.867943,1.8099767 C 13.454529,7.8868424 13.5,7.4487314 13.5,7 13.5,3.4101491 10.589851,0.5 7,0.5 3.4101491,0.5 0.5,3.4101491 0.5,7 c 0,3.589851 2.9101491,6.5 6.5,6.5" />
        </symbol>

        <symbol id="icon-asciidoc" viewBox="0 0 16 16">
            <path fill="none" stroke="var(--red)" stroke-linecap="round" stroke-linejoin="round" d="M3 15 4.7144695 11M5.7787881 8.5 9 1 15 15M1 8.5H8.0000001M1 11H7" />
        </symbol>

        <symbol id="icon-bash" viewBox="0 0 16 16">
            <g fill="none" stroke="var(--green)" stroke-linecap="round" stroke-linejoin="round">
                <path d="M2 15.5c-.7 0-1.5-.8-1.5-1.5V5c0-.7.8-1.5 1.5-1.5h9c.7 0 1.5.8 1.5 1.5v9c0 .7-.8 1.5-1.5 1.5z" />
                <path d="m1.2 3.8 3.04-2.5S5.17.5 5.7.5h8.4c.66 0 1.4.73 1.4 1.4v7.73a2.7 2.7 0 01-.7 1.75l-2.68 3.51" />
                <path d="M6 8.75c0-.69-.54-1.25-1.2-1.25h-.6c-.66 0-1.2.56-1.2 1.25S3.54 10 4.2 10h.6c.66 0 1.2.56 1.2 1.25s-.54 1.25-1.2 1.25h-.6c-.66 0-1.2-.56-1.2-1.25M4.5 6.5v1m0 5v1" />
            </g>
        </symbol>

        <symbol id="icon-c" viewBox="0 0 16 16">
            <path fill="none" stroke="var(--blue)" stroke-linecap="round" stroke-linejoin="round" d="m 4.0559072,12.951629 c 2.7459832,2.734744 7.1981158,2.734744 9.9441188,0 l -1.789955,-1.782586 c -1.75742,1.750224 -4.6067879,1.750224 -6.3642294,0 -1.7574416,-1.7502236 -1.7574416,-4.587893 0,-6.338097 1.7574415,-1.750224 4.6068094,-1.750224 6.3642294,0 l 0.894977,-0.8912929 0.894978,-0.891293 c -2.746003,-2.73472867 -7.1981359,-2.73472867 -9.944119,0 -2.7459858,2.7347089 -2.7459858,7.1685599 2e-7,9.9032689 z" clip-rule="evenodd" />
        </symbol>

        <symbol id="icon-docker" viewBox="0 0 16 16">
            <path fill="none" stroke="var(--blue)" stroke-linecap="round" stroke-linejoin="round" d="M.5 8.5H11l.75-.5a5.35 5.35 0 010-3.5c1 .6 1 1.88 1.74 2 .77-.09 1.23.01 2 .52 0 0-.97 1.77-2.5 1.98-1.93 3.65-4.5 5.5-6.98 5.5C0 14.5.5 8.5.5 8.5m1 0v-2m0 0h8m-6 2v-4m0 0h4m-2-2h2m-2 6v-6m2 6v-6m2 6v-2" />
        </symbol>

        <symbol id="icon-http" viewBox="0 0 16 16">
            <g fill="none" stroke="var(--blue)" stroke-linecap="round" stroke-linejoin="round">
                <path d="M14.5 8A6.5 6.5 0 018 14.5 6.5 6.5 0 011.5 8 6.5 6.5 0 018 1.5 6.5 6.5 0 0114.5 8" />
                <path d="M8 1.5c1.67 2 2.5 4.17 2.5 6.5s-.83 4.5-2.5 6.5m0-13A9.96 9.96 0 005.5 8c0 2.33.83 4.5 2.5 6.5m-5.5-4h11m-11-5h11" />
            </g>
        </symbol>

        <symbol id="icon-laravel" viewBox="0 0 16 16">
            <g fill="none" stroke="var(--red)" stroke-linecap="round" stroke-linejoin="round">
                <path d="M12.51 5.49v3.29M9.64 3.89l2.86 1.6 2.74-1.53M6.5 12v3.5m-3-12 3-1.5" />
                <path d="m3.5 10.5 6-3.5V3.5L12.51 2l2.99 1.5V7l-3.06 1.5L9.5 7" />
                <path d="m.5 2 3-1.5 3 1.5v6.5" />
                <path d="M.5 2v10.17l6 3.33 6.02-3.41V8.5L6.5 12.04l-3-1.54v-7z" />
            </g>
        </symbol>

        <symbol id="icon-javascript" viewBox="0 0 16 16">
            <g fill="none" stroke="var(--yellow)" stroke-linecap="round" stroke-linejoin="round">
                <path d="M4.5 11c0 .828427.6715729 1.5 1.5 1.5.8284271 0 1.5-.671573 1.5-1.5V7.5M12.5 8.75C12.5 8.05964406 11.9627417 7.5 11.3 7.5L10.7 7.5C10.0372583 7.5 9.5 8.05964406 9.5 8.75 9.5 9.44035594 10.0372583 10 10.7 10L11.3 10C11.9627417 10 12.5 10.5596441 12.5 11.25 12.5 11.9403559 11.9627417 12.5 11.3 12.5L10.7 12.5C10.0372583 12.5 9.5 11.9403559 9.5 11.25" />
                <path d="m 4,1.5 h 8 c 1.385,0 2.5,1.115 2.5,2.5 v 8 c 0,1.385 -1.115,2.5 -2.5,2.5 H 4 C 2.615,14.5 1.5,13.385 1.5,12 V 4 C 1.5,2.615 2.615,1.5 4,1.5 Z" />
            </g>
        </symbol>

        <symbol id="icon-nginx" viewBox="0 0 16 16">
            <g fill="none" stroke="var(--green)" stroke-linecap="round" stroke-linejoin="round">
                <path d="M5.5 10.5v-5l5 5v-5" />
                <path d="M1.5 11.5v-7L8 .5l6.5 4v7l-6.5 4z" />
            </g>
        </symbol>

        <symbol id="icon-nodejs" viewBox="0 0 16 16">
            <path fill="none" stroke="var(--green)" stroke-linecap="round" stroke-linejoin="round" d="M11.5 6.5v-.17c0-.73-.6-1.33-1.33-1.33H9a1.5 1.5 0 100 3h1a1.5 1.5 0 010 3H9a1.5 1.5 0 01-1.5-1.5M5.5 5v4.5c0 1.5-.08 1.87-.71 2.5-.5.5-1.5.5-1.5.5-.96-.4-1.2-.66-1.79-1v-7L8 .5l6.5 4v7l-6.5 4-2.49-1.53" />
        </symbol>

        <symbol id="icon-php" viewBox="0 0 16 16">
	        <path fill="none" stroke="var(--purple)" stroke-linecap="round" stroke-linejoin="round" d="M0.5,12.5 L0.5,13.24 C0.5,14 1.27360724,14.5 2,14.5 C2.9375516,14.5 3.5,14 3.5,13.2445661 L3.5,6.00089968 C3.5,4.28551107 4.99401107,2.52263547 7.14960413,2.5 C9.49387886,2.5 11,4.0579782 11,5.5 C11.1657296,8.48962302 9.57820404,9.63684469 7.49621582,10.5 L7.49621582,14.5 L15.4979764,14.5 L15.4979764,9 C15.5394484,8.36478228 14.9387379,7.15595371 14.1308258,6.5 C13.1942239,5.80827275 12.0584852,5.50253264 11,5.5 M11.5,14.5 L11.5,11.5 M6,6.5 C6.27614237,6.5 6.5,6.27614237 6.5,6 C6.5,5.72385763 6.27614237,5.5 6,5.5 C5.72385763,5.5 5.5,5.72385763 5.5,6 C5.5,6.27614237 5.72385763,6.5 6,6.5 Z" />
        </symbol>

        <symbol id="icon-python" viewBox="0 0 16 16">
            <g fill="none" stroke-linecap="round" stroke-linejoin="round">
                <path stroke="var(--blue)" d="M8.5 5.5h-3m6 0V3c0-.8-.7-1.5-1.5-1.5H7c-.8 0-1.5.7-1.5 1.5v2.5H3c-.8 0-1.5.7-1.5 1.5v2c0 .8.7 1.5 1.48 1.5" />
                <path stroke="var(--yellow)" d="M10.5 10.5h-3m-3 0V13c0 .8.7 1.5 1.5 1.5h3c.8 0 1.5-.7 1.5-1.5v-2.5H13c.8 0 1.5-.7 1.5-1.5V7c0-.8-.7-1.5-1.48-1.5H11.5c0 1.5 0 2-1 2h-2" />
                <path stroke="var(--blue)" d="M2.98 10.5H4.5c0-1.5 0-2 1-2h2M7.5 3.5v0" />
                <path stroke="var(--yellow)" d="m 8.5,12.5 v 0" />
            </g>
        </symbol>

        <symbol id="icon-react" viewBox="0 0 16 16">
            <g fill="none" stroke="var(--blue)" stroke-linecap="round" stroke-linejoin="round">
                <path d="M8 10.8c4.14 0 7.5-1.25 7.5-2.8S12.14 5.2 8 5.2.5 6.45.5 8s3.36 2.8 7.5 2.8" />
                <path d="M5.52 9.4c2.07 3.5 4.86 5.72 6.23 4.95 1.37-.78.8-4.24-1.27-7.75C8.41 3.1 5.62.88 4.25 1.65c-1.37.78-.8 4.24 1.27 7.75" />
                <path d="M5.52 6.6c-2.07 3.5-2.64 6.97-1.27 7.75 1.37.77 4.16-1.45 6.23-4.95s2.64-6.97 1.27-7.75C10.38.88 7.59 3.1 5.52 6.6" />
                <path d="M8.5 8a.5.5 0 01-.5.5.5.5 0 01-.5-.5.5.5 0 01.5-.5.5.5 0 01.5.5" />
            </g>
        </symbol>

        <symbol id="icon-ruby" viewBox="0 0 16 16">
	        <path fill="none" stroke="var(--red)" stroke-linecap="round" stroke-linejoin="round" d="M1.5 9.06v2.5c.02.86.36 1.61.9 2.15 1.76 1.76 5.71.65 8.84-2.47 3.12-3.13 4.23-7.08 2.47-8.84a3.1 3.1 0 00-2.15-.9h-2.5M14.5 4l-.25 10.25L4 14.5m4.39-6.11c2.34-2.35 3.29-5.2 2.12-6.37S6.49 1.8 4.14 4.14C1.8 6.5.85 9.34 2.02 10.51s4.02.22 6.37-2.12M5.5 14.5l.25-3.75L11 11l-.25-5.25 3.75-.25" />
        </symbol>

        <symbol id="icon-tailwind" viewBox="0 0 16 16">
	        <path fill="none" stroke="var(--blue)" stroke-linecap="round" stroke-linejoin="round" d="M8 2.5q-3 0-3.75 3.33C5 4.73 5.88 4.31 6.87 4.58c.58.16.98.62 1.43 1.13.74.83 1.6 1.79 3.45 1.79q3 0 3.75-3.33c-.75 1.1-1.63 1.52-2.63 1.25-.57-.16-.97-.62-1.42-1.13C10.7 3.46 9.85 2.5 8 2.5m-3.75 6q-3 0-3.75 3.33c.75-1.1 1.63-1.52 2.63-1.25.57.16.97.62 1.42 1.13.74.83 1.6 1.79 3.45 1.79q3 0 3.75-3.33c-.75 1.1-1.63 1.52-2.62 1.25-.58-.16-.98-.62-1.43-1.13-.74-.83-1.6-1.79-3.45-1.79" />
        </symbol>

        <symbol id="icon-typescript" viewBox="0 0 16 16">
            <g fill="none" stroke="var(--blue)" stroke-linecap="round" stroke-linejoin="round">
                <path d="M4 1.5h8A2.5 2.5 0 0114.5 4v8a2.5 2.5 0 01-2.5 2.5H4A2.5 2.5 0 011.5 12V4A2.5 2.5 0 014 1.5" />
                <path d="M12.5 8.75c0-.69-.54-1.25-1.2-1.25h-.6c-.66 0-1.2.56-1.2 1.25S10.04 10 10.7 10h.6c.66 0 1.2.56 1.2 1.25s-.54 1.25-1.2 1.25h-.6c-.66 0-1.2-.56-1.2-1.25m-3-3.75v5M5 7.5h3" />
            </g>
        </symbol>
    </defs>
</svg>
